<?xml version="1.0" encoding="UTF-8"?>
<!--Copyright (C) Microsoft Corporation. All rights reserved.
Use of this source code is governed by a BSD-style license that can be
found in the LICENSE file.-->
<svg width="293px" height="175px" viewBox="0 0 293 175" version="1.1" xmlns="http://www.w3.org/2000/svg" xmlns:xlink="http://www.w3.org/1999/xlink">
    <title>0A69CCB0-98E6-43DE-983E-ECE9ADBE789D</title>
    <defs>
        <rect id="path-1" x="0" y="0" width="293" height="175"></rect>
        <path d="M63.2467673,21.0479132 C62.4234382,21.0473146 61.606519,21.1919826 60.8339123,21.4752049 C62.3115864,15.1524714 60.1519038,8.53498757 55.2233872,4.2839941 C50.2948706,0.0330006347 43.4074015,-1.1529554 37.3307958,1.20306171 C31.2541902,3.55907882 26.9869899,9.06991513 26.2452623,15.5193716 C23.020653,13.2175182 18.7851217,12.8690511 15.2246313,14.6126786 C11.6641409,16.356306 9.35658722,19.9090233 9.22049727,23.8566632 C7.04542956,22.6617723 4.35325174,22.9395851 2.47065655,24.5531969 C0.588061366,26.1668087 -0.0877387579,28.7757603 0.77628735,31.0943725 C1.64031346,33.4129847 3.86186324,34.952049 6.34616727,34.9531216 L63.2467673,34.9531216 C65.7661557,34.9894445 68.1099394,33.6722871 69.3802848,31.506213 C70.6506303,29.3401389 70.6506303,26.6608959 69.3802848,24.4948218 C68.1099394,22.3287477 65.7661557,21.0115904 63.2467673,21.0479132" id="path-3"></path>
    </defs>
    <g id="WEB" stroke="none" stroke-width="1" fill="none" fill-rule="evenodd">
        <g id="Web-View-UI" transform="translate(-982.000000, -603.000000)">
            <g id="card3" transform="translate(924.000000, 603.000000)">
                <g id="Fragments/Illustrations/Pictograms/News-Edge" transform="translate(58.000000, 0.000000)">
                    <mask id="mask-2" fill="white">
                        <use xlink:href="#path-1"></use>
                    </mask>
                    <g id="Mask"></g>
                    <g id="Always-up-to-date" mask="url(#mask-2)">
                        <g transform="translate(5.397273, 9.747712)">
                            <path d="M261.913952,50.0804132 L148.908247,50.0804132 C146.892549,50.0812184 145.258932,51.7080545 145.258932,53.7145799 L145.258932,123.58333 L265.563267,123.58333 L265.563267,53.7145799 C265.563267,51.7080545 263.92965,50.0812184 261.913952,50.0804132" id="Path" fill="#737373" fill-rule="nonzero"></path>
                            <path d="M221.409632,50.0804132 L265.563267,94.0345799 L265.563267,53.7145799 C265.563267,51.7080545 263.92965,50.0812184 261.913952,50.0804132 L221.409632,50.0804132 Z" id="Path" fill="#939393" fill-rule="nonzero"></path>
                            <rect id="Rectangle" fill="#EDAC28" fill-rule="nonzero" x="153.222672" y="55.8393716" width="104.37539" height="63.4739583"></rect>
                            <path d="M278.465522,130.252288 L132.356677,130.252288 C131.162045,130.252675 130.016209,129.78054 129.171338,128.939788 C128.326468,128.099036 127.851802,126.958568 127.851802,125.769372 L127.851802,123.581872 L282.968932,123.581872 L282.968932,125.769372 C282.968932,128.245218 280.952687,130.252288 278.465522,130.252288" id="Path" fill="#505050" fill-rule="nonzero"></path>
                            <path d="M225.102897,64.0104132 L247.461727,64.0104132 C248.253833,64.0104132 248.895962,63.3712064 248.895962,62.5827049 C248.895962,61.7942034 248.253833,61.1549966 247.461727,61.1549966 L225.102897,61.1549966 C224.310791,61.1549966 223.668662,61.7942034 223.668662,62.5827049 C223.668662,63.3712064 224.310791,64.0104132 225.102897,64.0104132" id="Path" fill="#C58D1F" fill-rule="nonzero"></path>
                            <path d="M225.102897,71.1445799 L247.461727,71.1445799 C247.984797,71.1612276 248.475451,70.8929466 248.741933,70.4445869 C249.008415,69.9962271 249.008415,69.4389743 248.741933,68.9906146 C248.475451,68.5422549 247.984797,68.2739739 247.461727,68.2906216 L225.102897,68.2906216 C224.579828,68.2739739 224.089173,68.5422549 223.822691,68.9906146 C223.556209,69.4389743 223.556209,69.9962271 223.822691,70.4445869 C224.089173,70.8929466 224.579828,71.1612276 225.102897,71.1445799" id="Path" fill="#C58D1F" fill-rule="nonzero"></path>
                            <path d="M225.102897,78.2802049 L247.461727,78.2802049 C247.984797,78.2968526 248.475451,78.0285716 248.741933,77.5802119 C249.008415,77.1318521 249.008415,76.5745993 248.741933,76.1262396 C248.475451,75.6778799 247.984797,75.4095989 247.461727,75.4262466 L225.102897,75.4262466 C224.579828,75.4095989 224.089173,75.6778799 223.822691,76.1262396 C223.556209,76.5745993 223.556209,77.1318521 223.822691,77.5802119 C224.089173,78.0285716 224.579828,78.2968526 225.102897,78.2802049" id="Path" fill="#C58D1F" fill-rule="nonzero"></path>
                            <path d="M225.102897,85.4158299 L247.461727,85.4158299 C248.253833,85.4158299 248.895962,84.7766231 248.895962,83.9881216 C248.895962,83.19962 248.253833,82.5604132 247.461727,82.5604132 L225.102897,82.5604132 C224.310791,82.5604132 223.668662,83.19962 223.668662,83.9881216 C223.668662,84.7766231 224.310791,85.4158299 225.102897,85.4158299" id="Path" fill="#C58D1F" fill-rule="nonzero"></path>
                            <path d="M225.102897,92.5499966 L247.461727,92.5499966 C247.984797,92.5666442 248.475451,92.2983633 248.741933,91.8500035 C249.008415,91.4016438 249.008415,90.844391 248.741933,90.3960313 C248.475451,89.9476715 247.984797,89.6793906 247.461727,89.6960382 L225.102897,89.6960382 C224.579828,89.6793906 224.089173,89.9476715 223.822691,90.3960313 C223.556209,90.844391 223.556209,91.4016438 223.822691,91.8500035 C224.089173,92.2983633 224.579828,92.5666442 225.102897,92.5499966" id="Path" fill="#C58D1F" fill-rule="nonzero"></path>
                            <path d="M225.102897,99.6856216 L247.461727,99.6856216 C247.984797,99.7022692 248.475451,99.4339883 248.741933,98.9856285 C249.008415,98.5372688 249.008415,97.980016 248.741933,97.5316563 C248.475451,97.0832965 247.984797,96.8150156 247.461727,96.8316632 L225.102897,96.8316632 C224.579828,96.8150156 224.089173,97.0832965 223.822691,97.5316563 C223.556209,97.980016 223.556209,98.5372688 223.822691,98.9856285 C224.089173,99.4339883 224.579828,99.7022692 225.102897,99.6856216" id="Path" fill="#C58D1F" fill-rule="nonzero"></path>
                            <path d="M225.102897,106.821247 L247.461727,106.821247 C247.984797,106.837894 248.475451,106.569613 248.741933,106.121254 C249.008415,105.672894 249.008415,105.115641 248.741933,104.667281 C248.475451,104.218922 247.984797,103.950641 247.461727,103.967288 L225.102897,103.967288 C224.579828,103.950641 224.089173,104.218922 223.822691,104.667281 C223.556209,105.115641 223.556209,105.672894 223.822691,106.121254 C224.089173,106.569613 224.579828,106.837894 225.102897,106.821247" id="Path" fill="#C58D1F" fill-rule="nonzero"></path>
                            <path d="M225.102897,113.956872 L247.461727,113.956872 C247.984797,113.973519 248.475451,113.705238 248.741933,113.256879 C249.008415,112.808519 249.008415,112.251266 248.741933,111.802906 C248.475451,111.354547 247.984797,111.086266 247.461727,111.102913 L225.102897,111.102913 C224.579828,111.086266 224.089173,111.354547 223.822691,111.802906 C223.556209,112.251266 223.556209,112.808519 223.822691,113.256879 C224.089173,113.705238 224.579828,113.973519 225.102897,113.956872" id="Path" fill="#C58D1F" fill-rule="nonzero"></path>
                            <path d="M187.965147,87.5756216 L162.500517,79.2543716 C165.984642,68.2166415 176.343903,60.7723611 187.965147,60.9552049 L187.965147,87.5756216 Z" id="Path" fill="#FFFFFF" fill-rule="nonzero"></path>
                            <path d="M187.965147,87.5756216 L172.197352,109.083122 C167.567387,105.84142 164.155222,101.155713 162.500517,95.7670799 L187.965147,87.5756216 Z" id="Path" fill="#613D30" fill-rule="nonzero"></path>
                            <path d="M187.965147,87.5756216 L213.302322,95.7670799 C208.694014,109.731154 193.638889,117.386539 179.572162,112.918538 C176.906746,112.080998 174.410344,110.782694 172.197352,109.083122 L187.965147,87.5756216 Z" id="Path" fill="#D83B01" fill-rule="nonzero"></path>
                            <path d="M187.965147,87.5756216 L187.965147,60.9552049 C195.044248,60.9644665 201.829061,63.7757199 206.824017,68.7692827 C211.818972,73.7628455 214.613997,80.5287602 214.592987,87.5756216 C214.615318,90.3579694 214.179315,93.1251449 213.302322,95.7670799 L187.965147,87.5756216 Z" id="Path" fill="#9C2801" fill-rule="nonzero"></path>
                            <polygon id="Path" fill="#FEC94E" fill-rule="nonzero" points="257.598062 86.1056216 257.598062 55.8393716 227.194917 55.8393716"></polygon>
                            <path d="M235.401847,64.0104132 L247.461727,64.0104132 C248.253833,64.0104132 248.895962,63.3712064 248.895962,62.5827049 C248.895962,61.7942034 248.253833,61.1549966 247.461727,61.1549966 L232.534842,61.1549966 L235.401847,64.0104132 Z" id="Path" fill="#EDAC28" fill-rule="nonzero"></path>
                            <path d="M242.570092,71.1445799 L247.461727,71.1445799 C247.984797,71.1612276 248.475451,70.8929466 248.741933,70.4445869 C249.008415,69.9962271 249.008415,69.4389743 248.741933,68.9906146 C248.475451,68.5422549 247.984797,68.2739739 247.461727,68.2906216 L239.697227,68.2906216 L242.570092,71.1445799 Z" id="Path" fill="#EDAC28" fill-rule="nonzero"></path>
                            <path d="M206.655618,52.9606216 C206.655618,53.4621189 206.352063,53.9142079 205.886565,54.1059861 C205.421067,54.2977643 204.885348,54.1914432 204.529324,53.8366224 C204.173301,53.4818016 204.067125,52.9483957 204.260327,52.4852422 C204.45353,52.0220887 204.908043,51.7204482 205.411832,51.7210374 C205.741959,51.7210374 206.058542,51.8516831 206.291839,52.0841921 C206.525137,52.3167011 206.656006,52.6319978 206.655618,52.9606216" id="Path" fill="#09538F" fill-rule="nonzero"></path>
                            <path d="M247.461727,75.4262466 L246.875727,75.4262466 L248.806597,77.3483299 C248.9747,76.9110442 248.914794,76.4193114 248.646563,76.0346997 C248.378332,75.650088 247.936456,75.4223251 247.466122,75.4262466" id="Path" fill="#EDAC28" fill-rule="nonzero"></path>
                            <g id="Capa_100" stroke-width="1" fill="none" fill-rule="evenodd" transform="translate(4.857727, 0.000000)">
                                <path d="M58.69669,16.5810382 C58.69669,17.3606802 58.061776,17.9927049 57.27857,17.9927049 C56.495364,17.9927049 55.86045,17.3606802 55.86045,16.5810382 C55.86045,15.8013963 56.495364,15.1693716 57.27857,15.1693716 C58.061776,15.1693716 58.69669,15.8013963 58.69669,16.5810382" id="Path" fill="#FFB900" fill-rule="nonzero"></path>
                                <path d="M48.249775,26.5341632 C48.249775,27.2950578 47.7893278,27.9810299 47.0831393,28.2722116 C46.3769507,28.5633934 45.5640926,28.4024416 45.0235992,27.8644079 C44.4831059,27.3263741 44.3214184,26.517215 44.6139313,25.81424 C44.9064441,25.1112651 45.595552,24.6529132 46.359925,24.6529132 C47.4036603,24.6529132 48.249775,25.4951776 48.249775,26.5341632" id="Path" fill="#C2C2C2" fill-rule="nonzero"></path>
                                <path d="M41.09325,13.0781216 C40.4884181,10.3407195 38.3098451,8.22132202 35.54676,7.68228824 C38.3104024,7.14431073 40.4894661,5.02443589 41.09325,2.28645491 C41.698299,5.02427314 43.8775541,7.14377426 46.641205,7.68228824 C43.8781107,8.22185708 41.6993455,10.3408818 41.09325,13.0781216" id="Path" fill="#C2C2C2" fill-rule="nonzero"></path>
                                <path d="M5.993315,19.8914549 C5.993315,21.3484511 4.80678676,22.5295799 3.34313,22.5295799 C1.87947324,22.5295799 0.692945,21.3484511 0.692945,19.8914549 C0.692945,18.4344587 1.87947324,17.2533299 3.34313,17.2533299 C4.80678676,17.2533299 5.993315,18.4344587 5.993315,19.8914549" id="Path" fill="#FFB900" fill-rule="nonzero"></path>
                                <path d="M21.2425007,33.1841632 C21.2430925,33.8220462 20.8574622,34.3974197 20.2655544,34.6417994 C19.6736465,34.8861792 18.9921289,34.7513968 18.5390154,34.3003453 C18.0859019,33.8492938 17.9505034,33.1708774 18.1960003,32.5816631 C18.4414973,31.9924488 19.0195011,31.6085734 19.6603,31.6091626 C20.5337902,31.6099672 21.2416923,32.314648 21.2425007,33.1841632" id="Path" fill="#C6C6C6" fill-rule="nonzero"></path>
                                <path d="M31.958975,32.0364549 C30.8917436,27.2263881 27.0612941,23.5038558 22.205005,22.5572882 C27.0618501,21.6117752 30.8927892,17.8887669 31.958975,13.0781216 C33.0251608,17.8887669 36.8560999,21.6117752 41.712945,22.5572882 C36.8566559,23.5038558 33.0262064,27.2263881 31.958975,32.0364549" id="Path" fill="#70CAF2" fill-rule="nonzero"></path>
                                <path d="M58.86956,39.1633299 C56.6284611,41.3938072 52.9953019,41.3935785 50.7544865,39.162819 C48.513671,36.9320596 48.513671,33.3154336 50.7544865,31.0846741 C52.9953019,28.8539147 56.6284611,28.853686 58.86956,31.0841632 C59.9459552,32.1554569 60.5506849,33.6085648 60.5506849,35.1237466 C60.5506849,36.6389283 59.9459552,38.0920363 58.86956,39.1633299" id="Path" fill="#D83B01" fill-rule="nonzero"></path>
                                <path d="M33.760925,59.5916632 C29.7176055,63.6159768 23.1626339,63.6156491 19.1197204,59.5909314 C15.076807,55.5662136 15.076807,49.0410712 19.1197204,45.0163534 C23.1626339,40.9916357 29.7176055,40.991308 33.760925,45.0156216 C35.7028555,46.9484239 36.7938453,49.5700412 36.7938453,52.3036424 C36.7938453,55.0372436 35.7028555,57.6588609 33.760925,59.5916632" id="Path" fill="#DF6C47" fill-rule="nonzero"></path>
                                <path d="M19.834635,39.2522882 C16.7198058,42.3521204 11.6704085,42.3516759 8.55613016,39.2512952 C5.44185182,36.1509146 5.44185182,31.1244952 8.55613016,28.0241146 C11.6704085,24.923734 16.7198058,24.9232894 19.834635,28.0231216 C21.3307816,29.5120646 22.1713414,31.531742 22.1713414,33.6377049 C22.1713414,35.7436678 21.3307816,37.7633452 19.834635,39.2522882" id="Path" fill="#EDAC28" fill-rule="nonzero"></path>
                                <path d="M73.0112051,46.5949966 C73.0112051,50.0274127 70.934037,53.1218237 67.7483447,54.4352162 C64.5626523,55.7486087 60.8958538,55.0223117 58.4578834,52.5950184 C56.0199129,50.1677251 55.2909259,46.5174881 56.61087,43.3465184 C57.9308141,40.1755487 61.0397278,38.108365 64.487835,38.1089548 C66.7486271,38.1089548 68.9168017,39.003064 70.5152857,40.5945474 C72.1137698,42.1860309 73.0115936,44.3444925 73.0112051,46.5949966" id="Path" fill="#0D7364" fill-rule="nonzero"></path>
                                <path d="M68.5458851,59.2737466 C68.5458851,67.5888537 61.7743441,74.3295799 53.421225,74.3295799 C45.0681059,74.3295799 38.296565,67.5888537 38.296565,59.2737466 C38.296565,50.9586394 45.0681059,44.2179132 53.421225,44.2179132 C57.4326534,44.2175264 61.2798956,45.8036372 64.1164038,48.6272375 C66.952912,51.4508378 68.5462736,55.2805727 68.5458851,59.2737466" id="Path" fill="#EDAC28" fill-rule="nonzero"></path>
                                <path d="M85.68785,54.5531216 C85.4916519,59.8705977 82.0968966,64.5468072 77.0866075,66.4011663 C72.0763183,68.2555253 66.4372278,66.9228341 62.7989253,63.0245457 C59.1606228,59.1262573 58.23964,53.4301056 60.4654445,48.5922882 C62.691249,43.7544708 67.6254881,40.7277535 72.967255,40.9235382 C80.2603485,41.1916481 85.9549113,47.293133 85.68785,54.5531216" id="Path" fill="#91A80A" fill-rule="nonzero"></path>
                                <path d="M52.422095,45.2562466 C54.2172709,52.1439739 50.0634785,59.1762498 43.1442908,60.9633578 C36.225103,62.7504657 29.1606186,58.615679 27.3652394,51.7280041 C25.5698602,44.8403292 29.723445,37.8079319 36.64258,36.0206216 C43.5618813,34.2341003 50.6261456,38.3687582 52.422095,45.2562466" id="Path" fill="#9C2801" fill-rule="nonzero"></path>
                                <path d="M19.14169,6.37270491 C19.14169,7.15234688 18.506776,7.78437157 17.72357,7.78437157 C16.940364,7.78437157 16.30545,7.15234688 16.30545,6.37270491 C16.30545,5.59306294 16.940364,4.96103824 17.72357,4.96103824 C18.506776,4.96103824 19.14169,5.59306294 19.14169,6.37270491" id="Path" fill="#D83B01" fill-rule="nonzero"></path>
                                <path d="M234.18904,21.0479132 C233.365711,21.0473146 232.548792,21.1919826 231.776185,21.4752049 C233.253859,15.1524714 231.094177,8.53498757 226.16566,4.2839941 C221.237143,0.0330006347 214.349674,-1.1529554 208.273069,1.20306171 C202.196463,3.55907882 197.929263,9.06991513 197.187535,15.5193716 C193.962926,13.2175182 189.727394,12.8690511 186.166904,14.6126786 C182.606414,16.356306 180.29886,19.9090233 180.16277,23.8566632 C177.987702,22.6617723 175.295524,22.9395851 173.412929,24.5531969 C171.530334,26.1668087 170.854534,28.7757603 171.71856,31.0943725 C172.582586,33.4129847 174.804136,34.952049 177.28844,34.9531216 L234.18904,34.9531216 C236.708428,34.9894445 239.052212,33.6722871 240.322558,31.506213 C241.592903,29.3401389 241.592903,26.6608959 240.322558,24.4948218 C239.052212,22.3287477 236.708428,21.0115904 234.18904,21.0479132" id="Path" fill="#40CDF5" fill-rule="nonzero"></path>
                                <path d="M68.150335,26.0514549 C94.58626,41.8962466 120.17395,45.2139549 146.4414,28.8981216" id="Path" stroke="#C6C6C6" stroke-width="0.730839002" stroke-linecap="round" stroke-linejoin="round"></path>
                                <path d="M95.518,31.0374966 C115.16951,36.1591632 130.500735,31.6820799 148.6975,20.8962466 C171.524686,7.43337966 199.853932,7.20065497 222.901215,20.2866632" id="Path" stroke="#C6C6C6" stroke-width="0.730839002" stroke-linecap="round" stroke-linejoin="round"></path>
                                <g id="Clipped" transform="translate(170.942273, 0.000000)">
                                    <mask id="mask-4" fill="white">
                                        <use xlink:href="#path-3"></use>
                                    </mask>
                                    <g id="Path"></g>
                                    <path d="M-59.6916377,33.5224966 C-65.035785,33.4918629 -70.3536485,32.7752576 -75.5136377,31.3904132 C-75.7094392,31.3392694 -75.8265179,31.1398029 -75.7751402,30.9448924 C-75.7237626,30.7499819 -75.5233842,30.633436 -75.3275827,30.6845799 C-54.6593627,36.0702049 -39.2329127,30.5387466 -22.4337577,20.5841632 C0.486988316,6.98952404 28.9907121,6.75428173 52.1347423,19.9687466 C52.2979892,20.074102 52.3505443,20.2878065 52.2546466,20.4563131 C52.1587489,20.6248197 51.9475897,20.6898063 51.7728873,20.6045799 C28.8574592,7.51563325 0.631611979,7.7481058 -22.0631127,21.2127049 C-34.4672677,28.5641632 -46.1345277,33.5224966 -59.6916377,33.5224966 Z" id="Path" fill="#FFFFFF" fill-rule="nonzero" mask="url(#mask-4)"></path>
                                </g>
                                <path d="M43.33177,44.2908299 L41.226565,45.3116632 L40.26113,43.3458299 C39.4811933,41.7699772 37.5683637,41.1181029 35.981865,41.8874966 L35.981865,41.8874966 C34.3977793,42.6644957 33.7428517,44.5701376 34.516865,46.1502049 L35.483765,48.1145799 L33.377095,49.1354132 L36.46092,55.4135382 L46.42292,50.5631216 L43.33177,44.2908299 Z M35.606825,45.6179132 C35.1283736,44.6400063 35.5344986,43.4610829 36.515125,42.9812466 L36.515125,42.9812466 C37.4971541,42.507137 38.6794608,42.9118276 39.160915,43.8868716 L40.12635,45.8527049 L36.56933,47.5837466 L35.606825,45.6179132 Z" id="Shape" fill="#FFFFFF" fill-rule="nonzero"></path>
                                <rect id="Rectangle" fill="#0D7364" fill-rule="nonzero" x="66.35864" y="51.5547882" width="2.741015" height="3.51166667"></rect>
                                <rect id="Rectangle" fill="#FDA84C" fill-rule="nonzero" x="70.511915" y="47.6333299" width="2.741015" height="7.433125"></rect>
                                <rect id="Rectangle" fill="#FFFFFF" fill-rule="nonzero" x="74.66519" y="44.4133299" width="2.741015" height="10.653125"></rect>
                                <path d="M17.287,35.7231216 L17.287,35.7231216 L17.182985,35.7654132 L17.13171,35.7872882 L12.492055,37.7093716 L9.9327,33.2556216 L9.9327,33.2556216 C9.46782167,32.3945125 9.54955705,31.3427147 10.1419425,30.5630196 C10.734328,29.7833246 11.728765,29.4186694 12.6877008,29.6295023 C13.6466366,29.8403353 14.3942751,30.5880057 14.601655,31.5435382 C15.3487383,30.9155566 16.3938379,30.7757685 17.2809483,31.1851673 C18.1680587,31.5945661 18.7362137,32.4788663 18.737514,33.4522236 C18.7388098,34.425581 18.1730154,35.3113797 17.287,35.7231216" id="Path" fill="#DF6C47" fill-rule="nonzero"></path>
                                <path d="M17.045275,31.0739549 C16.5201084,30.895176 15.9501516,30.895176 15.424985,31.0739549 L15.66378,32.1049966 C15.9599515,33.3874909 15.3788535,34.7119543 14.232475,35.3672882 L11.90752,36.6958299 L12.49352,37.7064549 L17.133175,35.7843716 L17.18445,35.7624966 L17.288465,35.7202049 L17.288465,35.7202049 C18.2293412,35.2964868 18.8139417,34.3428294 18.7621785,33.3161398 C18.7104152,32.2894502 18.0328317,31.3988514 17.054065,31.0710382" id="Path" fill="#D83B01" fill-rule="nonzero"></path>
                                <path d="M56.43473,32.5993716 L53.189755,32.5993716 C52.1945197,32.601773 51.3880955,33.4038758 51.384875,34.3945799 L51.384875,35.3468716 C51.387291,36.3381453 52.1939498,37.1411332 53.189755,37.1435382 L53.97939,37.1435382 L53.97939,38.3860382 L55.22757,37.1435382 L56.43473,37.1435382 C57.4299631,37.1403324 58.2357326,36.337578 58.238145,35.3468716 L58.238145,34.3945799 C58.2349286,33.404443 57.4293933,32.6025733 56.43473,32.5993716" id="Path" fill="#FFFFFF" fill-rule="nonzero"></path>
                                <path d="M55.311075,34.8772882 C55.311075,35.1519348 55.0874121,35.3745799 54.81151,35.3745799 C54.5356079,35.3745799 54.311945,35.1519348 54.311945,34.8772882 C54.311945,34.6026416 54.5356079,34.3799966 54.81151,34.3799966 C55.0874121,34.3799966 55.311075,34.6026416 55.311075,34.8772882" id="Path" fill="#EDAC28" fill-rule="nonzero"></path>
                                <path d="M53.64537,34.8772882 C53.64537,35.1519348 53.4217071,35.3745799 53.145805,35.3745799 C52.8699029,35.3745799 52.64624,35.1519348 52.64624,34.8772882 C52.64624,34.6026416 52.8699029,34.3799966 53.145805,34.3799966 C53.4217071,34.3799966 53.64537,34.6026416 53.64537,34.8772882" id="Path" fill="#EDAC28" fill-rule="nonzero"></path>
                                <path d="M56.978245,34.8772882 C56.9788375,35.079278 56.8569831,35.2616794 56.6696286,35.3392502 C56.482274,35.416821 56.2664173,35.3742429 56.1229354,35.231414 C55.9794536,35.088585 55.9366808,34.8737106 56.0146062,34.6872086 C56.0925316,34.5007067 56.2757669,34.3794068 56.47868,34.3799966 C56.7545821,34.3799966 56.978245,34.6026416 56.978245,34.8772882" id="Path" fill="#EDAC28" fill-rule="nonzero"></path>
                            </g>
                            <polygon id="Rectangle" fill="#12856F" fill-rule="nonzero" transform="translate(38.901280, 82.674939) rotate(-5.557000) translate(-38.901280, -82.674939) " points="36.8333459 80.6155064 40.9673994 80.6173197 40.9692133 84.7343711 36.8351597 84.7325579"></polygon>
                            <path d="M175.070217,156.90333 L5.70889227,156.90333 C4.55673792,156.90333 3.62273227,155.973575 3.62273227,154.826663 C3.62273227,153.679752 4.55673792,152.749997 5.70889227,152.749997 L175.070217,152.749997 C176.222372,152.749997 177.156377,153.679752 177.156377,154.826663 C177.156377,155.973575 176.222372,156.90333 175.070217,156.90333" id="Path" fill="#C2C2C2" fill-rule="nonzero"></path>
                            <polygon id="Path" fill="#737373" fill-rule="nonzero" points="108.217872 132.566663 108.217872 121.906247 100.466557 121.906247 100.466557 132.566663 0.458332273 132.566663 0.458332273 138.185622 167.087432 138.185622 167.087432 132.566663"></polygon>
                            <path d="M131.533347,124.486038 L131.533347,124.486038 C131.194475,124.145098 131.194475,123.596145 131.533347,123.255205 L138.357317,116.463747 C138.56757,116.200212 138.911022,116.080065 139.240669,116.154731 C139.570316,116.229397 139.827733,116.485642 139.902741,116.813789 C139.977748,117.141936 139.857052,117.483825 139.592312,117.693122 L132.769807,124.486038 C132.427309,124.823368 131.875846,124.823368 131.533347,124.486038" id="Path" fill="#12856F" fill-rule="nonzero"></path>
                            <path d="M133.338227,120.899997 L133.755752,119.33958 C134.021935,118.339113 134.647416,117.470537 135.513752,116.89833 L136.315107,116.368955 C136.661464,116.142623 137.116349,116.171147 137.431437,116.438955 L139.970282,118.608955 L139.823782,118.782497 C139.552047,119.086708 139.091255,119.132388 138.764587,118.887497 L137.509082,117.943955 L138.333877,119.648747 C138.419119,119.823214 138.388939,120.031779 138.257697,120.175205 L137.774247,120.700205 L136.656452,119.504372 L135.206102,120.962705 L133.905182,121.992288 L133.338227,121.85958 L133.338227,120.899997 Z" id="Path" fill="#D8B094" fill-rule="nonzero"></path>
                            <path d="M137.777177,120.700205 L137.249777,121.283538 C137.249777,121.283538 136.596387,120.668122 137.028562,120.236455 C137.303982,119.962288 137.640932,119.61083 137.640932,119.61083 L137.777177,120.700205 Z" id="Path" fill="#D8B094" fill-rule="nonzero"></path>
                            <path d="M130.994227,110.477288 L131.149517,107.998122 C131.224809,105.203502 129.062982,102.851622 126.259955,102.678704 C123.456927,102.505786 121.019929,104.573964 120.748017,107.356455 L120.648397,108.960622 C120.578122,110.195088 120.957299,111.413394 121.716382,112.39208 L120.323167,116.345622 L124.578992,116.605205 L125.414042,115.372913 C125.783857,114.825016 126.417938,114.513582 127.079747,114.554788 L127.812247,114.599997 C129.422774,114.695609 130.807907,113.477154 130.910722,111.874372 L130.960532,111.072288 C131.092725,110.895813 131.107112,110.658076 130.997157,110.46708" id="Path" fill="#D8B094" fill-rule="nonzero"></path>
                            <path d="M129.866177,109.532288 L130.863842,110.29208 C130.920917,110.343755 130.966352,110.406876 130.997157,110.477288 L131.143657,107.998122 C131.143657,107.91208 131.131937,107.831872 131.133402,107.747288 L125.881377,107.423538 L125.865262,107.674372 L127.585172,108.257705 C128.196223,108.47127 128.774552,108.768198 129.303617,109.139997 L129.866177,109.532288 Z" id="Path" fill="#BB9167" fill-rule="nonzero"></path>
                            <path d="M130.592817,111.317288 L129.753372,111.435413 L129.681587,112.631247 C129.637789,113.358238 129.245233,114.019833 128.626787,114.408955 L128.341112,114.58833 C129.738512,114.418277 130.816891,113.282957 130.909257,111.88458 L130.959067,111.082497 C130.87521,111.20817 130.742447,111.29328 130.592817,111.317288" id="Path" fill="#BB9167" fill-rule="nonzero"></path>
                            <path d="M120.739227,107.356455 L135.625092,108.272288 L135.525472,108.009788 C135.254356,107.282348 134.577684,106.782586 133.799702,106.735205 L131.234487,106.577705 L131.005947,103.97458 C130.896488,102.709149 129.804834,101.75428 128.530097,101.808955 L124.135097,101.992705 C123.175349,102.034339 122.271543,102.453863 121.622576,103.158953 C120.97361,103.864043 120.632663,104.79692 120.674767,105.752288 L120.739227,107.356455 Z" id="Path" fill="#DF6C47" fill-rule="nonzero"></path>
                            <path d="M134.520482,106.761455 L133.297207,106.68708 C132.979474,106.667131 132.666824,106.773857 132.428255,106.983708 C132.189685,107.193559 132.044805,107.489283 132.025587,107.805622 L132.009472,108.056455 L135.628022,108.27958 L135.645602,108.027288 C135.684841,107.368876 135.181759,106.802876 134.520482,106.761455" id="Path" fill="#BA3615" fill-rule="nonzero"></path>
                            <path d="M131.237417,106.583538 L131.011807,103.980413 C130.900186,102.716071 129.809887,101.762388 128.535957,101.814788 L128.303022,101.824997 C127.676032,101.85017 127.163227,102.330797 127.100257,102.952288 L126.757447,106.306455 L131.237417,106.583538 Z" id="Path" fill="#F3F3F3" fill-rule="nonzero"></path>
                            <path d="M126.980127,108.960622 C126.967874,109.161481 126.835225,109.335191 126.644084,109.400689 C126.452943,109.466187 126.240988,109.410561 126.10713,109.259769 C125.973273,109.108977 125.943901,108.892745 126.03272,108.71198 C126.121538,108.531215 126.311041,108.421551 126.512792,108.434163 C126.78775,108.451352 126.996827,108.68688 126.980127,108.960622" id="Path" fill="#021760" fill-rule="nonzero"></path>
                            <path d="M130.961997,109.209997 C130.949744,109.410856 130.817095,109.584566 130.625954,109.650064 C130.434813,109.715562 130.222858,109.659936 130.089,109.509144 C129.955143,109.358352 129.925771,109.14212 130.01459,108.961355 C130.103408,108.78059 130.292911,108.670926 130.494662,108.683538 C130.76962,108.700727 130.978697,108.936255 130.961997,109.209997" id="Path" fill="#021760" fill-rule="nonzero"></path>
                            <path d="M120.739227,107.356455 L119.789907,109.12833 L120.435972,109.212913 L119.813347,110.938122 L120.443297,110.661038 C120.739672,111.451893 121.245979,112.147921 121.908297,112.674997 C122.571212,112.175264 122.97309,111.405157 123.002652,110.577913 C122.336009,110.532683 121.83129,109.959881 121.873137,109.296038 L121.914157,108.614997 C121.958926,108.167833 122.350944,107.835988 122.801508,107.863849 C123.252072,107.891709 123.59982,108.269297 123.588652,108.718538 L123.487567,110.350413 L123.780567,110.367913 C124.254254,110.400184 124.668075,110.052168 124.715237,109.581872 L124.927662,107.61458 L120.739227,107.356455 Z" id="Path" fill="#72594B" fill-rule="nonzero"></path>
                            <path d="M118.083182,122.702497 L117.964517,117.98333 C117.889723,116.167157 119.2015,114.586608 121.007322,114.31708 C122.813458,114.048807 124.63857,114.665272 125.907747,115.972288 L131.832207,122.040413 L118.083182,122.702497 Z" id="Path" fill="#4C9D4C" fill-rule="nonzero"></path>
                            <path d="M170.518462,123.864788 L150.657457,120.535413 L144.470762,99.5354132 C143.162517,95.1764549 139.236317,93.2149966 135.110877,93.2149966 L108.217872,93.2149966 L108.217872,145.287705 L174.183893,145.287705 L174.183893,128.179997 C174.184579,126.044599 172.636548,124.220688 170.521392,123.864788 M118.298537,119.975413 L118.298537,97.8772882 L134.447232,97.8772882 C137.084232,97.8772882 139.691932,98.7187466 140.379017,101.934372 L144.560127,119.973955 L118.298537,119.975413 Z" id="Shape" fill="#0078D7" fill-rule="nonzero"></path>
                            <rect id="Rectangle" fill="#002050" fill-rule="nonzero" x="165.644407" y="139.667288" width="10.94355" height="7.958125"></rect>
                            <path d="M138.625412,145.287705 C138.62482,149.962458 141.453319,154.177206 145.791858,155.966429 C150.130397,157.755653 155.124474,156.766952 158.445135,153.461402 C161.765796,150.155853 162.759016,145.184502 160.961614,140.865705 C159.164211,136.546909 154.930196,133.731282 150.234072,133.731871 C147.155264,133.731871 144.202556,134.949358 142.02551,137.116497 C139.848464,139.283636 138.625412,142.222907 138.625412,145.287705" id="Path" fill="#002050" fill-rule="nonzero"></path>
                            <path d="M144.560127,145.287705 C144.560127,147.572748 145.942897,149.632791 148.063652,150.507239 C150.184407,151.381687 152.625502,150.898333 154.248658,149.282564 C155.871814,147.666794 156.357378,145.236808 155.478932,143.125703 C154.600487,141.014598 152.531026,139.638121 150.235537,139.638121 C148.730206,139.637735 147.286417,140.232833 146.221987,141.292419 C145.157557,142.352005 144.559739,143.789224 144.560127,145.287705" id="Path" fill="#70CAF2" fill-rule="nonzero"></path>
                            <path d="M143.506792,125.37708 L143.506792,125.37708 C145.10395,125.37708 146.398703,124.08822 146.398703,122.49833 L146.398703,109.274163 C146.399091,108.510284 146.094627,107.777539 145.552288,107.237121 C145.00995,106.696704 144.274163,106.392883 143.506792,106.392497 L143.506792,125.37708 Z" id="Path" fill="#002050" fill-rule="nonzero"></path>
                            <path d="M170.625407,129.590204 L170.625407,129.590204 C171.176614,129.590204 171.705223,129.808274 172.094848,130.196399 C172.484472,130.584524 172.703166,131.110882 172.702778,131.65958 L172.702778,133.306038 C172.702778,134.448922 171.772051,135.375413 170.623942,135.375413 C169.475833,135.375413 168.545107,134.448922 168.545107,133.306038 L168.545107,131.65958 C168.545107,131.110495 168.764328,130.58392 169.154502,130.195795 C169.544676,129.80767 170.073812,129.589818 170.625407,129.590204" id="Path" fill="#F3F3F3" fill-rule="nonzero"></path>
                            <rect id="Rectangle" fill="#D83B01" fill-rule="nonzero" x="0.273742273" y="132.566663" width="6.696515" height="5.61895833"></rect>
                            <rect id="Rectangle" fill="#D2D2D2" fill-rule="nonzero" x="118.713132" y="121.906247" width="7.74106" height="2.55645833"></rect>
                            <path d="M130.796452,112.922913 L127.170577,112.699788 L127.198412,112.262288 C127.232115,111.745676 127.680016,111.353995 128.199007,111.387288 L129.939427,111.493747 C130.458016,111.528075 130.851047,111.973439 130.818427,112.489788 L130.796452,112.922913 Z" id="Path" fill="#72594B" fill-rule="nonzero"></path>
                            <path d="M131.049897,141.09208 L109.041202,141.09208 C108.763568,141.096176 108.489767,141.15724 108.236917,141.271455 L108.236917,136.896455 L31.5529573,136.896455 C27.0870103,132.67698 20.0840992,132.67698 15.6181523,136.896455 L6.69776727,136.896455 L6.69776727,145.286247 L11.9717673,145.286247 C11.9717673,151.669163 17.1697973,156.843538 23.5818923,156.843538 C29.9939873,156.843538 35.1920173,151.669163 35.1920173,145.286247 L107.467792,145.286247 L107.467792,149.99083 C107.467792,150.855846 108.172232,151.55708 109.041202,151.55708 L131.049897,151.55708 C131.467311,151.557467 131.86774,151.392577 132.162896,151.098764 C132.458052,150.804951 132.623308,150.406344 132.623308,149.99083 L132.623308,142.656872 C132.623308,142.24161 132.457491,141.843378 132.162377,141.549881 C131.867264,141.256384 131.467057,141.091693 131.049897,141.09208" id="Path" fill="#002050" fill-rule="nonzero"></path>
                            <path d="M17.9108771,145.287705 C17.9108771,148.407884 20.4518449,150.937288 23.5862873,150.937288 C26.7207297,150.937288 29.2616973,148.407884 29.2616973,145.287705 C29.2616973,142.167526 26.7207297,139.638121 23.5862873,139.638121 C22.0809558,139.637735 20.6371672,140.232833 19.5727371,141.292419 C18.508307,142.352005 17.9104885,143.789224 17.9108771,145.287705" id="Path" fill="#70CAF2" fill-rule="nonzero"></path>
                            <polygon id="Path" fill="#40CDF5" fill-rule="nonzero" points="95.0841473 53.1749966 56.6308273 54.0660382 15.3134323 53.1749966 15.3134323 132.334788 95.0841473 132.334788"></polygon>
                            <polygon id="Path" fill="#00B0E3" fill-rule="nonzero" points="95.0841473 131.639163 56.6352223 121.258747 56.6352223 54.0660382 95.0841473 53.1749966"></polygon>
                            <path d="M55.1980573,109.864788 C41.6918251,109.851123 30.7462852,98.9553919 30.7325573,85.5106216 L30.7325573,71.4727049 L35.5465473,71.4727049 L35.5465473,85.5135382 C35.6396835,96.2510764 44.4102986,104.906721 55.1973248,104.906721 C65.9843509,104.906721 74.7549661,96.2510764 74.8481023,85.5135382 L74.8481023,71.4727049 L79.6606273,71.4727049 L79.6606273,85.5135382 C79.6468994,98.9583086 68.7013594,109.854039 55.1951273,109.867705" id="Path" fill="#0086AD" fill-rule="nonzero"></path>
                            <path d="M9.55451727,134.608333 C9.85129953,134.608333 10.125561,134.45092 10.2723673,134.194163 L56.6542673,53.3499966 C56.8618954,52.9577118 56.7197784,52.4722013 56.3329649,52.2523394 C55.9461514,52.0324775 55.4538842,52.1574089 55.2200323,52.5347882 L8.83813227,133.378955 C8.73009177,133.568265 8.70158798,133.792651 8.759564,134.002712 C8.81754001,134.212774 8.95700244,134.391289 9.14724727,134.498955 C9.2708654,134.570703 9.41142149,134.608333 9.55451727,134.608333" id="Path" fill="#505050" fill-rule="nonzero"></path>
                            <path d="M102.494117,134.90583 C102.197499,134.90583 101.923524,134.747975 101.776267,134.491663 L55.2009873,53.3485382 C54.9752492,52.9542875 55.1133167,52.4525199 55.5093698,52.2278091 C55.9054228,52.0030982 56.4094842,52.1405375 56.6352223,52.5347882 L103.210502,133.676455 C103.436235,134.070304 103.298496,134.571741 102.902852,134.796455 C102.778723,134.868257 102.637682,134.90583 102.494117,134.90583" id="Path" fill="#505050" fill-rule="nonzero"></path>
                            <path d="M55.1980573,105.001247 C41.6921594,104.986779 30.747091,94.0915175 30.7325573,80.6470799 L30.7325573,66.6091632 L35.5465473,66.6091632 L35.5465473,80.6499966 C35.6396835,91.3875347 44.4102986,100.043179 55.1973248,100.043179 C65.9843509,100.043179 74.7549661,91.3875347 74.8481023,80.6499966 L74.8481023,66.6091632 L79.6606273,66.6091632 L79.6606273,80.6499966 C79.6460935,94.0944342 68.7010252,104.989696 55.1951273,105.004163" id="Path" fill="#FFFFFF" fill-rule="nonzero"></path>
                            <path d="M37.9667273,66.6091632 C37.9667273,63.959347 35.8088069,61.8112466 33.1468773,61.8112466 C30.4849476,61.8112466 28.3270273,63.959347 28.3270273,66.6091632 C28.3270273,69.2589794 30.4849476,71.4070799 33.1468773,71.4070799 C34.425181,71.4070799 35.6511287,70.9015866 36.5550259,70.0018027 C37.4589231,69.1020187 37.9667273,67.8816499 37.9667273,66.6091632" id="Path" fill="#FFFFFF" fill-rule="nonzero"></path>
                            <path d="M36.9968973,63.7522882 C37.1759766,64.2787172 37.2708929,64.8298761 37.2781773,65.3856216 C37.278566,66.810229 36.710228,68.1765993 35.6982734,69.1839489 C34.6863187,70.1912985 33.3137022,70.7570502 31.8825823,70.7566632 C31.3665183,70.7492261 30.8542777,70.6671886 30.3619123,70.5131216 C32.2900561,71.8845587 34.9348164,71.6513972 36.5908213,69.9639822 C38.2468262,68.2765673 38.4192438,65.6391163 36.9968973,63.7522882" id="Path" fill="#00B0E3" fill-rule="nonzero"></path>
                            <path d="M82.0749473,66.6091632 C82.0749473,63.959347 79.9170269,61.8112466 77.2550973,61.8112466 C74.5931676,61.8112466 72.4352473,63.959347 72.4352473,66.6091632 C72.4352473,69.2589794 74.5931676,71.4070799 77.2550973,71.4070799 C78.533401,71.4070799 79.7593487,70.9015866 80.6632459,70.0018027 C81.5671431,69.1020187 82.0749473,67.8816499 82.0749473,66.6091632" id="Path" fill="#FFFFFF" fill-rule="nonzero"></path>
                            <path d="M81.1109773,63.7522882 C81.2900566,64.2787172 81.3849729,64.8298761 81.3922573,65.3856216 C81.4163364,67.0852064 80.6195559,68.6930405 79.2500982,69.7083132 C77.8806404,70.7235858 76.1049018,71.022936 74.4759923,70.5131216 C76.4041361,71.8845587 79.0488964,71.6513972 80.7049013,69.9639822 C82.3609062,68.2765673 82.5333238,65.6391163 81.1109773,63.7522882" id="Path" fill="#0086AD" fill-rule="nonzero"></path>
                        </g>
                    </g>
                </g>
            </g>
        </g>
    </g>
</svg>