<?xml version="1.0" encoding="UTF-8"?>
<!--Copyright (C) Microsoft Corporation. All rights reserved.
Use of this source code is governed by a BSD-style license that can be
found in the LICENSE file.-->
<svg width="294px" height="177px" viewBox="0 0 294 177" version="1.1" xmlns="http://www.w3.org/2000/svg" xmlns:xlink="http://www.w3.org/1999/xlink">
    <title>273F3E2B-863B-460C-B025-B30E44945B7C</title>
    <defs>
        <rect id="path-1" x="0" y="0" width="292.798681" height="175.533039"></rect>
        <radialGradient cx="74.9521773%" cy="49.5996547%" fx="74.9521773%" fy="49.5996547%" r="26.0409266%" gradientTransform="translate(0.749522,0.495997),scale(0.913097,1.000000),translate(-0.749522,-0.495997)" id="radialGradient-3">
            <stop stop-color="#2B6AB0" offset="0%"></stop>
            <stop stop-color="#2867AD" offset="67.5%"></stop>
            <stop stop-color="#205FA2" offset="81.3%"></stop>
            <stop stop-color="#135190" offset="94.2%"></stop>
            <stop stop-color="#0B4986" offset="100%"></stop>
        </radialGradient>
        <radialGradient cx="49.8874735%" cy="50.2849604%" fx="49.8874735%" fy="50.2849604%" r="64.198763%" gradientTransform="translate(0.498875,0.502850),scale(1.000000,0.890431),translate(-0.498875,-0.502850)" id="radialGradient-4">
            <stop stop-color="#037CD5" offset="3.9%"></stop>
            <stop stop-color="#0C88DA" offset="60.2%"></stop>
            <stop stop-color="#0870B6" offset="92.8%"></stop>
        </radialGradient>
        <radialGradient cx="71.8686465%" cy="50%" fx="71.8686465%" fy="50%" r="81.9732081%" gradientTransform="translate(0.718686,0.500000),scale(0.665995,1.000000),translate(-0.718686,-0.500000)" id="radialGradient-5">
            <stop stop-color="#2FC2E0" offset="0%"></stop>
            <stop stop-color="#32C4A4" offset="57.1%"></stop>
            <stop stop-color="#35C669" offset="74%"></stop>
            <stop stop-color="#36C752" offset="100%"></stop>
        </radialGradient>
    </defs>
    <g id="WEB" stroke="none" stroke-width="1" fill="none" fill-rule="evenodd">
        <g id="Web-View-UI" transform="translate(-126.000000, -603.000000)">
            <g id="card1" transform="translate(68.000000, 603.000000)">
                <g id="Fragments/Illustrations/Pictograms/Devtools-started" transform="translate(58.000000, 0.000000)">
                    <g id="Web-view">
                        <mask id="mask-2" fill="white">
                            <use xlink:href="#path-1"></use>
                        </mask>
                        <g id="Mask"></g>
                        <g id="Group" mask="url(#mask-2)" fill-rule="nonzero">
                            <g transform="translate(31.187402, 51.756216)">
                                <path d="M236.279411,112.569121 L19.1945358,112.569121 C11.8120825,112.568406 4.87803042,109.022378 0.550359483,103.034614 L236.279411,103.034614 C238.86814,103.092118 240.936763,105.209556 240.936763,107.801868 C240.936763,110.39418 238.86814,112.511617 236.279411,112.569121" id="Path" fill="#C2C2C2"></path>
                                <path d="M53.3278643,104.684321 L53.3278643,51.7904535 L26.6273599,51.7904535 L0.501135482,100.472054 C0.0191224188,101.359186 0.0404974762,102.43512 0.557363802,103.302362 C1.07423013,104.169604 2.00985978,104.699413 3.01859152,104.69607 L53.3278643,104.69607" id="Path" fill="#E6E6E6"></path>
                                <path d="M56.7383843,104.684321 L56.7383843,51.7904535 L30.0402239,51.7904535 L3.91399953,100.472054 C3.43218965,101.358817 3.45333614,102.434257 3.9696323,103.301349 C4.48592846,104.168442 5.42079756,104.698581 6.42911157,104.696063 L56.7383843,104.696063" id="Path" fill="#B2B2B2"></path>
                                <path d="M196.424378,112.435361 L35.0892,112.435361 C32.613493,112.36373 30.5358274,110.545426 30.1339839,108.098721 L15.2191117,4.5332795 C15.0167034,3.4431989 15.3176988,2.31995705 16.0379221,1.47767709 C16.7581454,0.635397133 17.8202903,0.164486682 18.9273198,0.196639433 L180.262498,0.196639433 C182.737488,0.270100819 184.814155,2.08753065 185.217714,4.5332795 L200.130242,108.098721 C200.333473,109.188531 200.033104,110.311872 199.313219,111.154289 C198.593334,111.996706 197.531287,112.467676 196.424378,112.435361" id="Path" fill="#939393"></path>
                                <path d="M199.152794,112.435361 L37.817616,112.435361 C35.3422676,112.362814 33.2651018,110.544948 32.8624,108.098721 L17.9498717,4.5332795 C17.7466416,3.44347 18.0470101,2.32012857 18.7668954,1.47771144 C19.4867807,0.635294301 20.5488268,0.164324181 21.6557358,0.196639433 L182.990914,0.196639433 C185.466263,0.269186597 187.543428,2.08705295 187.94613,4.5332795 L202.861002,108.110454 C203.064332,109.200679 202.763673,110.324446 202.043248,111.166962 C201.322823,112.009478 200.260108,112.480136 199.152794,112.447094" id="Path" fill="#282828"></path>
                                <path d="M27.6610639,71.9717872 L17.8467357,3.82458615 C17.6769224,2.91275865 17.9283994,1.97297502 18.5307863,1.26825125 C19.1331731,0.563527477 20.0217558,0.169571567 20.9478478,0.196639433 L89.2660728,0.210719434 L27.6610639,71.9717872 Z" id="Path" fill="#505050"></path>
                                <polygon id="Path" fill="#737373" points="192.943538 103.212961 41.3734641 103.212961 27.8673359 9.42138624 179.43741 9.42138624"></polygon>
                                <rect id="Rectangle" fill="#EEEEEE" x="52.9786083" y="96.7080009" width="44.8641607" height="1"></rect>
                                <rect id="Rectangle" fill="#EEEEEE" x="51.5839282" y="88.0628807" width="44.8641607" height="1"></rect>
                                <rect id="Rectangle" fill="#EEEEEE" x="50.1025202" y="78.9953606" width="44.8641607" height="1"></rect>
                                <rect id="Rectangle" fill="#EEEEEE" x="48.3609282" y="69.6978671" width="44.8641607" height="1"></rect>
                                <polygon id="Path" fill="#FEC94E" points="80.3237127 76.3178139 73.3151526 76.3178139 76.3154726 97.1609075 83.3263767 97.1609075"></polygon>
                                <polygon id="Path" fill="#2B4860" points="62.3171044 76.3178139 55.3062003 76.3178139 58.3088643 97.1609075 65.3174244 97.1609075"></polygon>
                                <polygon id="Path" fill="#DF6C47" points="72.7877526 86.5657074 65.7768485 86.5657074 67.3027925 97.1632542 74.3136966 97.1632542"></polygon>
                                <polygon id="Path" fill="#FEC94E" points="63.7446004 22.1590931 44.2003281 22.1590931 46.3896242 39.8201067 65.9338965 39.8201067"></polygon>
                                <polygon id="Path" fill="#91A723" points="66.5316165 43.3260267 46.9896882 43.3260267 49.1766402 60.989387 68.7232565 60.989387"></polygon>
                                <polygon id="Path" fill="#FFFFFF" opacity="0.3" points="27.8673359 9.42138624 35.583784 63.009867 81.3949207 9.42138624"></polygon>
                                <polygon id="Path" fill="#DF6C47" points="87.5033848 22.3914131 67.9591125 22.3914131 70.1484085 40.0524267 89.6926808 40.0524267"></polygon>
                                <polygon id="Path" fill="#EDAC28" points="108.414209 22.3914131 91.9499528 22.3914131 99.849233 82.639734 116.315833 82.639734"></polygon>
                                <polygon id="Path" fill="#FFFFFF" points="170.570058 22.3914131 113.875729 22.3914131 121.775009 82.639734 178.471682 82.639734"></polygon>
                                <polygon id="Path" fill="#00B294" points="90.2904008 43.5583467 70.7484725 43.5583467 72.9354246 61.221707 92.4796969 61.221707"></polygon>
                                <polygon id="Path" fill="#00B294" points="88.4784888 65.5137604 81.4675847 65.5137604 86.0243208 97.1609075 93.0352249 97.1609075"></polygon>
                                <polygon id="Path" fill="#C6C6C6" points="171.732682 65.6592537 125.872321 65.6592537 126.568489 69.4960538 172.42885 69.4960538"></polygon>
                                <polygon id="Path" fill="#C6C6C6" points="146.811274 71.9389338 126.917745 71.9389338 127.613913 75.7780806 147.509786 75.7780806"></polygon>
                                <path d="M160.019714,52.1330669 C160.119762,52.1041258 160.227629,52.1263199 160.308168,52.1924176 C160.388706,52.2585154 160.431603,52.3600534 160.422882,52.4639469 C158.327459,57.4869753 153.300007,60.6450435 147.870762,60.348747 C147.542602,60.348747 139.458146,58.0020803 138.445538,50.1923735 C137.43293,42.3826667 142.704586,40.1814934 142.704586,40.1814934 C141.680613,40.6211454 140.983992,41.5922851 140.895018,42.7041601 C140.660618,44.6213868 141.38257,47.7987735 146.55109,51.2530669 C151.834466,54.9209069 158.57581,52.6986135 160.019714,52.1330669 Z" id="Path" fill="url(#radialGradient-3)"></path>
                                <path d="M149.347482,44.1285868 C148.814951,41.7931617 146.827093,40.0759351 144.44149,39.8905067 C140.69109,39.6886934 137.786874,45.0038934 138.60493,49.6456002 C139.573496,55.6948862 144.822283,60.1209444 150.941402,60.0483737 C149.939589,60.2590589 148.91782,60.3597783 147.894202,60.348747 C138.279853,60.2018309 130.177726,53.1242467 128.729657,43.6076267 C127.473273,34.2913599 139.779274,34.1904533 144.23053,36.6966933 C146.874401,38.3746004 148.72189,41.0579053 149.347482,44.1285868 L149.347482,44.1285868 Z" id="Path" fill="url(#radialGradient-4)"></path>
                                <path d="M154.08705,49.3898228 C154.54413,49.3898228 162.471538,49.4437868 161.044042,41.3337067 C159.616546,33.2236266 150.200698,27.6315198 142.760842,27.6315198 C138.635403,27.4107541 134.635486,29.0901111 131.9014,32.190834 C129.167314,35.291557 127.999049,39.4734287 128.729657,43.5442667 C128.729657,43.5442667 128.167097,35.3309333 138.248642,35.57968 C147.589482,36.1992 149.115426,43.1969601 149.220906,43.7930134 C149.689706,46.3860801 148.283306,46.5691201 148.435666,47.4092268 C148.557554,48.1460801 150.528858,49.3898228 154.08705,49.3898228 Z" id="Path" fill="url(#radialGradient-5)"></path>
                            </g>
                        </g>
                        <path d="M228.122258,28.5528381 C227.214225,29.3152381 226.854404,30.5501753 227.210599,31.6817341 C227.566794,32.8132929 228.568848,33.6186006 229.749452,33.7221002 C230.930056,33.8255998 232.056676,33.2069061 232.603911,32.154548 C233.151146,31.1021899 233.011212,29.8234409 232.249368,28.9146482 C231.750081,28.3186678 231.034706,27.9457094 230.260683,27.8778533 C229.486659,27.8099972 228.71742,28.0528044 228.122258,28.5528381" id="Path" fill="#4DB0FF" fill-rule="nonzero" mask="url(#mask-2)"></path>
                        <path d="M160.732258,49.0861714 C159.824225,49.8485715 159.464404,51.0835086 159.820599,52.2150674 C160.176794,53.3466263 161.178848,54.1519339 162.359452,54.2554335 C163.540056,54.3589332 164.666676,53.7402394 165.213911,52.6878813 C165.761146,51.6355232 165.621212,50.3567742 164.859368,49.4479815 C164.360081,48.8520011 163.644706,48.4790427 162.870683,48.4111866 C162.096659,48.3433305 161.32742,48.5861377 160.732258,49.0861714" id="Path-Copy-2" fill="#4DB0FF" fill-rule="nonzero" mask="url(#mask-2)"></path>
                        <path d="M242.772258,60.8195048 C241.864225,61.5819048 241.504404,62.8168419 241.860599,63.9484008 C242.216794,65.0799596 243.218848,65.8852672 244.399452,65.9887669 C245.580056,66.0922665 246.706676,65.4735727 247.253911,64.4212146 C247.801146,63.3688566 247.661212,62.0901076 246.899368,61.1813148 C246.400081,60.5853345 245.684706,60.212376 244.910683,60.14452 C244.136659,60.0766639 243.36742,60.3194711 242.772258,60.8195048" id="Path-Copy" fill="#3FCE65" fill-rule="nonzero" mask="url(#mask-2)"></path>
                        <path d="M172.87,61.6 C180.271668,64.2983847 185.965628,70.2702715 188.2525,77.7333333 C190.539372,70.2702715 196.233332,64.2983847 203.635,61.6 C196.232937,58.9022055 190.538753,52.9300831 188.2525,45.4666667 C185.966247,52.9300831 180.272063,58.9022055 172.87,61.6" id="Path" fill="#3FCE65" fill-rule="nonzero" mask="url(#mask-2)"></path>
                        <path d="M206.565,85.8 C210.442207,87.1488749 213.424742,90.134977 214.622031,93.8666667 C215.820035,90.1350679 218.802765,87.1491184 222.68,85.8 C218.802765,84.4508816 215.820035,81.4649321 214.622031,77.7333333 C213.424742,81.465023 210.442207,84.4511251 206.565,85.8" id="Path" fill="#4DB0FF" fill-rule="nonzero" mask="url(#mask-2)"></path>
                        <path d="M165.545,27.1333333 C169.422207,28.4822083 172.404742,31.4683103 173.602031,35.2 C174.800035,31.4684012 177.782765,28.4824517 181.66,27.1333333 C177.782765,25.7842149 174.800035,22.7982655 173.602031,19.0666667 C172.404742,22.7983563 169.422207,25.7844584 165.545,27.1333333" id="Path-Copy-4" fill="#4DB0FF" fill-rule="nonzero" mask="url(#mask-2)"></path>
                        <path d="M200.705,38.1329165 C204.933982,39.6051174 208.187251,42.8625688 209.494117,46.9333333 C210.801962,42.862539 214.055731,39.6052414 218.285,38.1329165 C214.055986,36.6612212 210.80262,33.4039814 209.495883,29.3333333 C208.189391,33.4046805 204.935081,36.6622112 200.705,38.1329165" id="Path" fill="#0067B8" fill-rule="nonzero" mask="url(#mask-2)"></path>
                        <path d="M244.655,15.3996874 C247.826737,16.5038381 250.266688,18.9469266 251.246837,22 C252.227722,18.9469043 254.668048,16.503931 257.84,15.3996874 C254.668239,14.2959159 252.228215,11.8529861 251.248163,8.8 C250.268293,11.8535104 247.827561,14.2966584 244.655,15.3996874" id="Path-Copy-5" fill="#0067B8" fill-rule="nonzero" mask="url(#mask-2)"></path>
                        <path d="M193.38,16.8666667 C196.904734,18.2155416 199.616129,21.2016437 200.704573,24.9333333 C201.793669,21.2017345 204.505241,18.2157851 208.03,16.8666667 C204.505241,15.5175483 201.793669,12.5315988 200.704573,8.8 C199.616129,12.5316897 196.904734,15.5177917 193.38,16.8666667" id="Path" fill="#3FCE65" fill-rule="nonzero" mask="url(#mask-2)"></path>
                        <path d="M253.445,40.3333333 C256.969734,41.6822083 259.681129,44.6683103 260.769573,48.4 C261.858669,44.6684012 264.570241,41.6824517 268.095,40.3333333 C264.570241,38.9842149 261.858669,35.9982655 260.769573,32.2666667 C259.681129,35.9983563 256.969734,38.9844584 253.445,40.3333333" id="Path-Copy-3" fill="#3FCE65" fill-rule="nonzero" mask="url(#mask-2)"></path>
                    </g>
                </g>
            </g>
        </g>
    </g>
</svg>