<?xml version="1.0" encoding="UTF-8"?>
<!--Copyright (C) Microsoft Corporation. All rights reserved.
Use of this source code is governed by a BSD-style license that can be
found in the LICENSE file.-->
<svg width="294px" height="176px" viewBox="0 0 294 176" version="1.1" xmlns="http://www.w3.org/2000/svg" xmlns:xlink="http://www.w3.org/1999/xlink">
    <title>65F3EFE0-A34B-490E-96A8-C703D2C02A85</title>
    <defs>
        <rect id="path-1" x="0" y="0" width="294" height="176"></rect>
        <rect id="path-3" x="0.95256" y="0.174533333" width="256.0593" height="127.739333"></rect>
        <radialGradient cx="49.6947309%" cy="49.7724771%" fx="49.6947309%" fy="49.7724771%" r="53.654859%" gradientTransform="translate(0.496947,0.497725),scale(0.909987,1.000000),translate(-0.496947,-0.497725)" id="radialGradient-5">
            <stop stop-color="#2B6AB0" offset="51.3%"></stop>
            <stop stop-color="#2867AD" offset="67.5%"></stop>
            <stop stop-color="#205FA2" offset="81.3%"></stop>
            <stop stop-color="#135190" offset="94.2%"></stop>
            <stop stop-color="#0B4986" offset="100%"></stop>
        </radialGradient>
        <radialGradient cx="49.8397139%" cy="50.1546103%" fx="49.8397139%" fy="50.1546103%" r="64.1987623%" gradientTransform="translate(0.498397,0.501546),scale(1.000000,0.893470),translate(-0.498397,-0.501546)" id="radialGradient-6">
            <stop stop-color="#037CD5" offset="3.9%"></stop>
            <stop stop-color="#0C88DA" offset="60.2%"></stop>
            <stop stop-color="#0870B6" offset="92.8%"></stop>
        </radialGradient>
        <radialGradient cx="25.4532259%" cy="42.5787396%" fx="25.4532259%" fy="42.5787396%" r="126.158547%" gradientTransform="translate(0.254532,0.425787),scale(0.663667,1.000000),translate(-0.254532,-0.425787)" id="radialGradient-7">
            <stop stop-color="#2FC2E0" offset="41.4%"></stop>
            <stop stop-color="#32C4A4" offset="57.1%"></stop>
            <stop stop-color="#35C669" offset="74%"></stop>
            <stop stop-color="#36C752" offset="82%"></stop>
        </radialGradient>
    </defs>
    <g id="WEB" stroke="none" stroke-width="1" fill="none" fill-rule="evenodd">
        <g id="Web-View-UI" transform="translate(-553.000000, -603.000000)">
            <g id="card2" transform="translate(496.000000, 603.000000)">
                <g id="Fragments/Illustrations/Pictograms/News-Edge" transform="translate(57.000000, 0.000000)">
                    <mask id="mask-2" fill="white">
                        <use xlink:href="#path-1"></use>
                    </mask>
                    <g id="Mask"></g>
                    <g id="Power-of-native" mask="url(#mask-2)">
                        <g transform="translate(1.470000, 14.666667)">
                            <g id="Capa_97" stroke-width="1" fill="none" fill-rule="evenodd" transform="translate(33.810000, 8.800000)">
                                <g id="Clipped">
                                    <mask id="mask-4" fill="white">
                                        <use xlink:href="#path-3"></use>
                                    </mask>
                                    <g id="Rectangle"></g>
                                    <g id="Group" mask="url(#mask-4)" fill-rule="nonzero">
                                        <path d="M5.292,104.573333 L2.69745,104.573333 C1.83389133,104.496825 1.06231659,105.110431 0.944495833,105.967397 C0.826675078,106.824362 1.40414066,107.622603 2.25645,107.780933 L74.30115,127.605867 C75.3895304,127.853918 76.5067495,127.952606 77.62188,127.8992 L255.85644,127.8992 C256.391812,127.96058 256.886587,127.606898 257.000513,127.081377 C257.114438,126.555856 256.810382,126.029783 256.29744,125.864933 L242.55,121.494267 L83.99286,121.494267 C82.6631431,121.585372 81.329548,121.385136 80.0856,120.9076 L62.43825,113.320533 L34.22895,113.320533 C32.4673788,113.315062 30.9812366,112.0109 30.75093,110.2684 L30.17322,106.333333 L8.18496,106.333333 C6.94784093,106.403181 5.79628618,105.702606 5.292,104.573333 Z" id="Path" fill="#E5E5E5"></path>
                                        <path d="M76.04016,101.659067 C75.0788759,104.250975 72.717259,106.066595 69.96024,106.333333 L8.18496,106.333333 C5.73006,106.333333 4.43058,104.133333 5.15235,101.659067 L22.36311,51.5108 C23.3217062,48.9179002 25.683,47.1010799 28.44009,46.8350667 L90.2139,46.8350667 C92.67027,46.8350667 93.97122,49.0248 93.10539,51.5108 L76.04016,101.659067 Z" id="Path" fill="#939393"></path>
                                        <path d="M197.41218,110.2684 C197.515581,110.873164 197.350682,111.492924 196.960264,111.966893 C196.569846,112.440862 195.992387,112.722327 195.3777,112.738267 L34.22895,112.738267 C32.8116569,112.675037 31.6200234,111.656126 31.3404,110.2684 L14.112,3.23986667 C14.00679,2.63675373 14.1694194,2.01778932 14.5576486,1.54373748 C14.9458777,1.06968564 15.5213946,0.787327448 16.13472,0.77 L177.44664,0.77 C178.812055,0.888444456 179.932685,1.89694055 180.19113,3.23986667 L197.41218,110.2684 Z" id="Path" fill="#505050"></path>
                                        <path d="M197.41218,110.2684 L196.82418,110.2684 L196.82418,110.7084 C196.833074,111.095636 196.671991,111.46743 196.38318,111.726267 C196.12735,112.015091 195.756548,112.176177 195.37035,112.166267 L34.22895,112.166267 C33.6981998,112.1258 33.1934403,111.920661 32.78541,111.5796 C32.3633076,111.187542 32.0623774,110.683228 31.91811,110.126133 L14.7,3.23986667 L14.7,3.23986667 L14.7,2.94653333 C14.6905129,2.51693423 14.8486299,2.1004519 15.141,1.78493333 C15.3955096,1.49515814 15.7663511,1.33382068 16.15236,1.34493333 L177.44664,1.34493333 C177.926923,1.41464927 178.3778,1.61797329 178.74759,1.9316 C179.142987,2.34936917 179.438929,2.85067871 179.61342,3.39826667 L179.61342,3.39826667 L196.833,110.4136 L196.833,110.266933 L197.421,110.266933 L197.99871,110.120267 L180.76884,3.23986667 L180.76884,3.23986667 C180.554718,1.55099335 179.151269,0.26225229 177.44664,0.18834214 L16.1406,0.18834214 C15.4124826,0.169437767 14.7173438,0.492050274 14.26341,1.0604 C13.7920105,1.57644827 13.5336499,2.25127302 13.54017,2.94946667 C13.5240075,3.11300556 13.5773328,3.27581078 13.68717,3.39826667 L13.68717,3.39826667 L30.75387,110.2684 C30.9841766,112.0109 32.4703188,113.315062 34.23189,113.321239 L195.3777,113.321239 C196.110324,113.33841 196.809775,113.016027 197.27106,112.447867 C197.712922,111.971651 197.968103,111.352588 197.98989,110.704 L197.98989,110.117333 L197.98989,110.117333 L197.41218,110.2684 Z" id="Path" fill="#B2B2B2"></path>
                                        <polygon id="Path" fill="#B2B2B2" points="183.52656 52.0916 179.03718 52.9628 179.4723 56.1718667 184.10427 56.6089333"></polygon>
                                        <path d="M29.73957,99.3329333 L31.48446,110.704 C31.7026596,111.885415 32.7367987,112.741847 33.94083,112.738278 L87.88983,112.738278 L52.01448,102.385067 L29.73957,99.3329333 Z" id="Path" fill="#0064B5"></path>
                                        <path d="M245.86926,123.8204 L83.99286,123.8204 C82.6431051,123.809659 81.3111275,123.512168 80.0856,122.947733 L29.73957,101.0768 L196.539,101.0768 L246.4455,121.058667 L246.4455,123.238133 C246.425861,123.548453 246.180011,123.796875 245.86926,123.8204 Z" id="Path" fill="#0078D7"></path>
                                        <path d="M245.86926,121.494267 L83.99286,121.494267 C82.6631431,121.585372 81.329548,121.385136 80.0856,120.9076 L29.73957,99.3329333 L196.539,99.3329333 L246.01185,120.609867 C246.256625,120.649153 246.423135,120.87898 246.38376,121.1232 C246.344385,121.36742 246.114035,121.533552 245.86926,121.494267 Z" id="Path" fill="#00BCF2"></path>
                                        <path d="M180.33813,116.82 L136.36161,116.82 C135.663733,116.813775 134.974645,116.663987 134.33742,116.38 L117.1149,108.944 C116.930946,108.854541 116.827989,108.654914 116.861963,108.453569 C116.895936,108.252224 117.058728,108.097234 117.2619,108.0728 L160.8033,108.0728 C161.506235,108.062569 162.202183,108.213083 162.83778,108.5128 L180.47778,116.094 C180.76884,116.2392 180.76884,116.82 180.33813,116.82 Z" id="Path" fill="#0078D7"></path>
                                        <polygon id="Path" fill="#000000" points="182.80332 92.9148 40.45146 92.9148 41.31876 99.3329333 183.66915 99.3329333"></polygon>
                                        <polygon id="Path" fill="#505050" points="83.41515 99.3329333 41.31876 99.3329333 40.45146 92.9148 82.4082 92.9148"></polygon>
                                        <polygon id="Path" fill="#FFFFFF" points="47.39574 94.3682667 44.06178 94.9490667 44.35137 97.4321333 47.97345 97.8677333"></polygon>
                                        <path d="M97.167,96.1238667 C97.2563547,96.5175148 97.1588098,96.9302811 96.9026119,97.2426381 C96.646414,97.5549951 96.2601821,97.7320506 95.85576,97.7225333 C94.9186825,97.7294281 94.1188907,97.0483034 93.97857,96.1238667 C93.8886681,95.730383 93.9841207,95.3174855 94.2376794,95.0030426 C94.491238,94.6885996 94.8750389,94.5071654 95.27952,94.5105333 C96.2063258,94.5495941 96.9860974,95.2161079 97.167,96.1238667 Z" id="Path" fill="#0064B5"></path>
                                        <path d="M89.34807,96.1238667 C89.4379687,96.5173336 89.3408342,96.9301746 89.0848442,97.2426285 C88.8288542,97.5550823 88.4426627,97.7321749 88.0383,97.7225333 C87.1188937,97.6821356 86.3446948,97.0233224 86.15964,96.1238667 C86.0755135,95.7059925 86.1937694,95.2730023 86.4787438,94.9554784 C86.7637183,94.6379544 87.1820547,94.4730633 87.60759,94.5105333 C88.4996131,94.5642482 89.2288542,95.2402164 89.34807,96.1238667 L89.34807,96.1238667 Z" id="Path" fill="#505050"></path>
                                        <polygon id="Path" fill="#FFB900" points="105.40635 97.5773333 101.64021 97.5773333 101.0625 94.6586667 104.97123 94.6586667"></polygon>
                                        <polygon id="Path" fill="#FFFFFF" points="113.07093 97.5773333 109.45179 97.5773333 109.0152 94.6586667 112.49322 94.6586667"></polygon>
                                        <path d="M27.86238,12.8670667 L41.31876,99.3329333 L27.86238,12.8670667 Z" id="Path" fill="#3E3E3E"></path>
                                        <polygon id="Path" fill="#FFFFFF" points="27.86238 12.8670667 41.31876 99.3329333 40.45146 92.9148 82.4082 92.9148 172.09143 92.9148 111.19227 59.0905333 106.7073 59.0905333 106.27218 56.3185333 93.39351 49.1729333 97.30665 74.2529333 60.41847 74.2529333 53.61972 29.9302667 58.67211 29.9302667"></polygon>
                                        <path d="M172.09143,92.9148 L82.4082,92.9148 L83.41515,99.3329333 L183.66915,99.3329333 L172.09143,92.9148 Z M95.844,97.7225333 C94.9069225,97.7294281 94.1071307,97.0483034 93.96681,96.1238667 C93.8769081,95.730383 93.9723607,95.3174855 94.2259194,95.0030426 C94.479478,94.6885996 94.8632789,94.5071654 95.26776,94.5105333 C96.1945658,94.5495941 96.9743374,95.2161079 97.15524,96.1238667 C97.2445947,96.5175148 97.1470498,96.9302811 96.8908519,97.2426381 C96.634654,97.5549951 96.2484221,97.7320506 95.844,97.7225333 Z M88.03389,97.7225333 C87.1144837,97.6821356 86.3402848,97.0233224 86.15523,96.1238667 C86.0711035,95.7059925 86.1893594,95.2730023 86.4743338,94.9554784 C86.7593083,94.6379544 87.1776447,94.4730633 87.60318,94.5105333 C88.4952031,94.5642482 89.2244442,95.2402164 89.34366,96.1238667 C89.4333515,96.5165661 89.3367508,96.9285961 89.0817814,97.2408557 C88.8268119,97.5531153 88.4418971,97.7307944 88.0383,97.7225333 L88.03389,97.7225333 Z M109.44738,97.5758667 L109.00638,94.6572 L112.4844,94.6572 L113.06211,97.5758667 L109.44738,97.5758667 Z M101.6358,97.5758667 L101.05809,94.6572 L104.96682,94.6572 L105.40782,97.5758667 L101.6358,97.5758667 Z" id="Shape" fill="#1A1A1A"></path>
                                        <path d="M82.4082,92.9148 L40.45146,92.9148 L41.31876,99.3329333 L83.41515,99.3329333 L82.4082,92.9148 Z M47.97345,97.8677333 L44.35137,97.4277333 L44.05737,94.9446667 L47.39133,94.358 L47.97345,97.8677333 Z" id="Shape" fill="#626262"></path>
                                        <polygon id="Path" fill="#FFFFFF" points="47.39574 94.3682667 44.06178 94.9490667 44.35137 97.4321333 47.97345 97.8677333"></polygon>
                                        <path d="M95.27217,94.5134667 C94.8676889,94.5100987 94.483888,94.6915329 94.2303294,95.0059759 C93.9767707,95.3204189 93.8813181,95.7333163 93.97122,96.1268 C94.1115407,97.0512367 94.9113325,97.7323614 95.84841,97.7254667 C96.2528321,97.7349839 96.639064,97.5579284 96.8952619,97.2455714 C97.1514598,96.9332144 97.2490047,96.5204481 97.15965,96.1268 C96.9787474,95.2190412 96.1989758,94.5525274 95.27217,94.5134667 Z" id="Path" fill="#1A74BD"></path>
                                        <path d="M87.612,94.5134667 C87.1864647,94.4759967 86.7681283,94.6408878 86.4831538,94.9584117 C86.1981794,95.2759357 86.0799235,95.7089258 86.16405,96.1268 C86.3491048,97.0262557 87.1233037,97.6850689 88.04271,97.7254667 C88.4470727,97.7351082 88.8332642,97.5580156 89.0892542,97.2455618 C89.3452442,96.9331079 89.4423787,96.520267 89.35248,96.1268 C89.2332642,95.2431497 88.5040231,94.5671816 87.612,94.5134667 L87.612,94.5134667 Z" id="Path" fill="#626262"></path>
                                        <polygon id="Path" fill="#FFC01A" points="104.97123 94.6586667 101.0625 94.6586667 101.64021 97.5773333 105.40635 97.5773333"></polygon>
                                        <polygon id="Path" fill="#FFFFFF" points="112.49322 94.6586667 109.0152 94.6586667 109.45179 97.5773333 113.07093 97.5773333"></polygon>
                                        <polygon id="Path" fill="#0078D7" points="33.79677 101.0768 29.73957 99.3329333 29.73957 101.0768"></polygon>
                                        <polygon id="Path" fill="#FFFFFF" points="170.23188 12.6852 27.43461 12.6852 40.06338 92.4836 182.86065 92.4836"></polygon>
                                        <polygon id="Path" fill="#EA40A9" points="34.34361 56.6001333 68.96946 56.6001333 62.475 19.8484 28.40628 19.8484"></polygon>
                                        <polygon id="Path" fill="#BAD80A" points="67.49946 56.6001333 153.0858 56.6001333 146.59134 19.8484 61.005 19.8484"></polygon>
                                        <polygon id="Path" fill="#D83B01" points="46.80627 83.4372 63.05565 83.4372 61.35927 73.8378667 45.10989 73.8378667"></polygon>
                                        <polygon id="Path" fill="#E3E3E3" points="63.99939 83.4372 80.24877 83.4372 78.55239 73.8378667 62.30301 73.8378667"></polygon>
                                        <polygon id="Path" fill="#B4009E" points="81.19398 83.4372 97.44189 83.4372 95.74551 73.8378667 79.4976 73.8378667"></polygon>
                                        <polygon id="Path" fill="#FFB900" points="98.3871 83.4372 114.64383 83.4372 112.94745 73.8378667 96.69072 73.8378667"></polygon>
                                        <polygon id="Path" fill="#464646" points="115.58022 83.4372 131.94279 83.4372 130.24494 73.8378667 113.88384 73.8378667"></polygon>
                                        <polygon id="Path" fill="#ACACAC" points="44.79972 72.0852 59.48943 72.0852 59.14251 70.1198667 44.4528 70.1198667"></polygon>
                                        <polygon id="Path" fill="#ACACAC" points="33.00885 18.4990667 40.08984 18.4990667 39.74439 16.5425333 32.6634 16.5425333"></polygon>
                                        <polygon id="Path" fill="#ACACAC" points="43.11363 18.4990667 50.20344 18.4990667 49.85652 16.5425333 42.76818 16.5425333"></polygon>
                                        <polygon id="Path" fill="#ACACAC" points="53.21841 18.4990667 60.30675 18.4990667 59.9613 16.5425333 52.87296 16.5425333"></polygon>
                                        <polygon id="Path" fill="#ACACAC" points="63.33201 18.4990667 70.413 18.4990667 70.06608 16.5425333 62.98656 16.5425333"></polygon>
                                        <polygon id="Path" fill="#00BCF2" points="70.65849 63.0446667 83.9958 63.0446667 83.64888 61.0793333 70.31157 61.0793333"></polygon>
                                        <polygon id="Path" fill="#00BCF2" points="89.83464 63.0446667 103.17195 63.0446667 102.82503 61.0793333 89.48772 61.0793333"></polygon>
                                        <polygon id="Path" fill="#00BCF2" points="108.90201 63.0446667 122.23932 63.0446667 121.8924 61.0793333 108.55509 61.0793333"></polygon>
                                        <polygon id="Path" fill="#00BCF2" points="128.07816 63.0446667 141.41547 63.0446667 141.06855 61.0793333 127.73124 61.0793333"></polygon>
                                        <polygon id="Path" fill="#E6E6E6" points="171.43581 20.0992 171.18444 19.8484 131.89134 19.8484 138.3858 56.6001333 177.13941 56.6001333"></polygon>
                                        <polygon id="Path" fill="#E7E7E7" points="127.6695 18.4990667 165.08247 18.4990667 164.73702 16.5425333 127.32405 16.5425333"></polygon>
                                        <path d="M124.6119,16.5425333 C124.360635,16.5081453 124.108229,16.5972302 123.934526,16.781607 C123.760824,16.9659838 123.687314,17.2228441 123.73725,17.4709333 C123.827317,18.0705878 124.349753,18.5101971 124.95735,18.4976 C125.211132,18.501067 125.451106,18.3825742 125.602269,18.179156 C125.753432,17.9757378 125.797344,17.7122086 125.72028,17.4709333 C125.612375,16.9418287 125.152881,16.5569479 124.6119,16.5425333 L124.6119,16.5425333 Z" id="Path" fill="#268CDD"></path>
                                        <polygon id="Path" fill="#4C9D4C" points="133.12026 83.4372 149.48136 83.4372 147.78498 73.8378667 131.42388 73.8378667"></polygon>
                                        <polygon id="Path" fill="#FF8C00" points="150.60591 83.4372 166.96701 83.4372 165.27063 73.8378667 148.90953 73.8378667"></polygon>
                                    </g>
                                </g>
                            </g>
                            <path d="M127.77093,147.622933 L3.381,147.622933 C2.43935146,147.622933 1.56923229,147.121709 1.098408,146.308067 C0.627583704,145.494424 0.627583704,144.491976 1.098408,143.678333 C1.56923229,142.864691 2.43935146,142.363467 3.381,142.363467 L127.77093,142.363467 C128.712579,142.363467 129.582698,142.864691 130.053522,143.678333 C130.524346,144.491976 130.524346,145.494424 130.053522,146.308067 C129.582698,147.121709 128.712579,147.622933 127.77093,147.622933" id="Path" fill="#C2C2C2" fill-rule="nonzero"></path>
                            <path d="M151.19685,25.6270667 L142.20045,25.6270667 C139.116023,25.627116 136.243051,24.062941 134.57409,21.4749333 L134.28009,21.0114667 C132.600055,18.407789 130.155364,16.3850684 127.27995,15.2196 L127.45782,14.4026667 C128.153002,11.1981406 127.384367,7.85111473 125.36013,5.26826667 L121.68513,0.574933333 L121.78509,2.52706667 C121.896838,4.74002204 121.320806,6.933405 120.13575,8.80733333 L119.62566,9.61546667 C118.679404,11.1176502 118.081727,12.8119062 117.87636,14.5742667 C117.74406,14.6065333 117.61029,14.6344 117.47946,14.6710667 C118.05864,11.6204 118.00278,8.3072 116.09913,5.87106667 L113.09886,1.23493333 L113.19,3.20026667 C113.301748,5.41322204 112.725716,7.606605 111.54066,9.48053333 L111.03057,10.2886667 C109.653581,12.467367 109.02126,15.0325981 109.22835,17.6 L109.43709,20.1886667 C102.748359,28.1407117 97.5259403,37.2131624 94.01238,46.9846667 L91.36638,54.3370667 C88.76595,61.5706667 79.82835,67.9858667 73.92483,72.9241333 L60.58752,84.0810667 C46.7195414,95.6780336 38.1324248,112.370661 36.77352,130.373467 L36.24873,137.338667 C36.1603116,138.512107 35.1805264,139.419342 34.0011,139.419867 L29.106,139.419867 C28.7041774,139.419841 28.3244239,139.603231 28.0751583,139.91768 C27.8258926,140.232129 27.73451,140.643077 27.8271,141.0332 L28.08582,142.090667 C28.8558462,145.257394 31.6979532,147.486533 34.96395,147.486533 L98.4018,147.486533 L98.1078,146.078533 C97.3688011,142.533485 94.2515855,139.982822 90.62256,139.953733 L82.47288,139.9112 C85.0233027,132.065198 84.4349677,123.539234 80.83089,116.116 C80.35755,115.0776 82.51845,112.302667 83.61066,111.958 L102.018,106.927333 C102.36492,106.807067 102.70596,106.688267 103.047,106.566533 C104.16273,109.822533 107.06157,117.9816 109.29009,121.689333 C110.25,123.2 119.952,136.3692 119.6727,137.6672 C119.3787,139.015067 119.30373,139.947867 120.68406,139.8672 L122.51421,141.000933 L124.03125,146.168 C124.1268,146.363067 125.0529,146.608 125.27046,146.608 L135.33555,146.734133 L134.45355,145.914267 C134.23305,144.2452 133.42455,143.0792 131.73699,143.0792 L124.78977,130.9836 C119.26335,121.043201 115.97413,110.020748 115.15098,98.6832 C118.35558,94.1028 119.85498,86.9498667 119.85498,74.3776 C119.892545,71.265081 119.714249,68.1536978 119.32137,65.0657333 C118.707976,61.806208 118.54476,58.4782373 118.83627,55.1745333 L119.13027,49.5322667 C119.99316,43.4353333 122.43777,37.7593333 127.71654,34.5722667 L129.88773,34.4461333 L139.58973,34.2584 C144.39222,34.2584 147.34251,33.1642667 150.00027,29.1734667 L152.4096,27.8534667 C152.702957,27.4119026 152.729383,26.8452178 152.478385,26.3783848 C152.227387,25.9115517 151.739576,25.6200993 151.20861,25.6197333" id="Path" fill="#282828" fill-rule="nonzero"></path>
                            <path d="M129.873031,22.9548 C129.873625,23.5055666 129.541476,24.0024035 129.031591,24.2134468 C128.521706,24.4244902 127.9346,24.3081363 127.544264,23.9186853 C127.153928,23.5292343 127.03731,22.9434598 127.248833,22.4347311 C127.460356,21.9260025 127.958322,21.5946068 128.51034,21.5951992 C128.871748,21.5951992 129.218353,21.7384432 129.473907,21.9934176 C129.729461,22.2483921 129.873031,22.5942117 129.873031,22.9548" id="Path" fill="#E6E6E6" fill-rule="nonzero"></path>
                            <path d="M151.52025,29.1764 L152.31552,27.984 L131.76051,27.984 C129.105862,27.9850126 126.500107,28.6966403 124.215,30.0446667 L123.88866,30.2353333 C118.772218,33.2519896 115.951724,39.0221325 116.71947,44.902 L119.12145,63.36 C118.906917,60.746986 118.98927,58.1181462 119.36694,55.5236 L120.1137,50.2436 C120.976887,44.1467551 124.538471,38.7588831 129.8157,35.5666667 L139.57356,35.5666667 C144.375471,35.5668473 148.858615,33.1684854 151.51584,29.1778667" id="Path" fill="#8E562E" fill-rule="nonzero"></path>
                            <path d="M109.29303,121.689333 C111.439737,126.397542 114.105618,130.852411 117.24132,134.971467 C118.046641,136.289121 118.291131,137.87312 117.92046,139.371467 C117.772888,140.002752 117.930313,140.666555 118.345787,141.164915 C118.761261,141.663275 119.386776,141.938607 120.03579,141.9088 L120.9075,141.8604 L123.50058,147.1712 C123.594867,147.367436 123.794028,147.491915 124.01214,147.490939 L136.72764,147.490939 L136.51743,145.8908 C136.298207,144.221542 134.872294,142.973324 133.18494,142.9736 C129.880321,139.227157 127.013981,135.11749 124.6413,130.724 C122.57721,130.097764 120.808184,128.750834 119.658,126.929733 C118.447118,125.002613 116.547601,123.606501 114.34395,123.024 L109.29303,121.689333 Z" id="Path" fill="#8E562E" fill-rule="nonzero"></path>
                            <path d="M115.19655,11.9269333 C114.521102,14.1066313 114.609234,16.4507816 115.44645,18.5738667 L116.50044,21.2505333 C117.344016,20.4365427 117.926692,19.3912268 118.17477,18.2468 L118.8642,15.0685333 C119.559294,11.865155 118.791208,8.51925361 116.76798,5.93706667 L113.09298,1.24373333 L114.70998,4.72853333 C115.758407,6.98400667 115.931251,9.54726753 115.19508,11.9225333" id="Path" fill="#8E562E" fill-rule="nonzero"></path>
                            <path d="M83.17407,113.408533 L93.051,110.293333 C96.101146,109.365363 99.0884473,108.243011 101.99448,106.9332 L89.65677,107.7164 C85.9522356,107.95205 82.5205734,109.740529 80.2104252,112.639551 C77.900277,115.538573 76.9273367,119.277462 77.53221,122.9316 C78.1671424,126.758861 77.06949,130.670082 74.53488,133.611867 L69.09588,139.918533 L83.202,139.918533 C85.9390964,132.070824 85.5314563,123.471467 82.06422,115.916533 C81.8451456,115.439358 81.8420969,114.891276 82.0558492,114.411704 C82.2696016,113.932132 82.6795524,113.567296 83.18142,113.41" id="Path" fill="#8E562E" fill-rule="nonzero"></path>
                            <polygon id="Path" fill="#B2B2B2" fill-rule="nonzero" points="99.72774 34.3317333 121.89387 44.3241333 120.36066 48.8693333 97.68591 38.2726667"></polygon>
                            <path d="M123.42561,53.4174667 C123.42561,55.1922153 121.983622,56.6309333 120.20484,56.6309333 C118.426058,56.6309333 116.98407,55.1922153 116.98407,53.4174667 C116.98407,51.642718 118.426058,50.204 120.20484,50.204 C121.059041,50.204 121.878257,50.5425607 122.482268,51.1452026 C123.08628,51.7478445 123.42561,52.5652023 123.42561,53.4174667" id="Path" fill="#B2B2B2" fill-rule="nonzero"></path>
                            <g id="Capa_98" stroke-width="1" fill="none" fill-rule="evenodd" transform="translate(178.870000, 37.664399)">
                                <path d="M20.12684,15.3673342 C20.1895837,15.3492461 20.2572307,15.3631174 20.3077388,15.4044285 C20.358247,15.4457395 20.3851493,15.5092008 20.37968,15.5741342 C19.0652194,18.7132296 15.9125743,20.6868744 12.50783,20.5021342 C12.30203,20.5021342 7.232,19.0354676 6.59696,14.1544009 C5.96192,9.27333424 9.26795,7.89760091 9.26795,7.89760091 C8.62622366,8.17214117 8.18943333,8.77842235 8.13311,9.47280091 C7.98611,10.6725342 8.4374,12.6584009 11.68022,14.8158676 C14.99213,17.1082676 19.22132,15.7222676 20.12684,15.3673342 Z" id="Path" fill="url(#radialGradient-5)" fill-rule="nonzero"></path>
                                <path d="M13.43393,10.3645342 C13.0993709,8.90466523 11.852209,7.83147179 10.35575,7.71573424 C8.00375,7.58960091 6.18389,10.9116009 6.69692,13.8112009 C7.30368806,17.5925884 10.5955525,20.359647 14.43353,20.3144009 C13.8052602,20.4460792 13.1644749,20.5090288 12.52253,20.5021342 C6.49305348,20.4103117 1.41194178,15.9868216 0.50381,10.0389342 C-0.28411,4.21626757 7.43339,4.15320091 10.22345,5.71960091 C11.8821864,6.76787809 13.0414066,8.44504189 13.43393,10.3645342 L13.43393,10.3645342 Z" id="Path" fill="url(#radialGradient-6)" fill-rule="nonzero"></path>
                                <path d="M16.40627,13.6513408 C16.69145,13.6513408 21.66446,13.6865342 20.76923,8.61773424 C19.874,3.54893424 13.96901,0.0538675737 9.30323,0.0538675737 C6.71633757,-0.08401322 4.20816383,0.965395222 2.49359209,2.90298899 C0.77902036,4.84058275 0.0461298208,7.45381834 0.50381,9.99786757 C0.50381,9.99786757 0.15101,4.86453424 6.47348,5.02000091 C12.33143,5.40866757 13.2884,9.78226757 13.35455,10.1533342 C13.6412,11.7754676 12.76655,11.8898676 12.86063,12.4149342 C12.93854,12.8754676 14.17481,13.6513408 16.40627,13.6513408 Z" id="Path" fill="url(#radialGradient-7)" fill-rule="nonzero"></path>
                            </g>
                        </g>
                    </g>
                </g>
            </g>
        </g>
    </g>
</svg>