<!--Copyright (C) Microsoft Corporation. All rights reserved.
Use of this source code is governed by a BSD-style license that can be
found in the LICENSE file.-->
<svg xmlns="http://www.w3.org/2000/svg" xmlns:xlink="http://www.w3.org/1999/xlink" viewBox="0 0 960 400">
  <defs/>
  <defs>
    <radialGradient id="c" cx="50%" cy="49.8%" r="53.6%" fx="50%" fy="49.8%" gradientTransform="matrix(.93246 0 0 1 0 0)">
      <stop offset="51.3%" stop-color="#2B6AB0"/>
      <stop offset="67.5%" stop-color="#2867AD"/>
      <stop offset="81.3%" stop-color="#205FA2"/>
      <stop offset="94.2%" stop-color="#135190"/>
      <stop offset="100%" stop-color="#0B4986"/>
    </radialGradient>
    <radialGradient id="d" cx="50%" cy="50.2%" r="69.8%" fx="50%" fy="50.2%" gradientTransform="matrix(1 0 0 .8201 0 0)">
      <stop offset="3.9%" stop-color="#037CD5"/>
      <stop offset="60.2%" stop-color="#0C88DA"/>
      <stop offset="92.8%" stop-color="#0870B6"/>
    </radialGradient>
    <radialGradient id="e" cx="28.3%" cy="42.5%" r="126%" fx="28.3%" fy="42.5%" gradientTransform="matrix(.6645 0 0 1 0 0)">
      <stop offset="41.4%" stop-color="#2FC2E0"/>
      <stop offset="57.1%" stop-color="#32C4A4"/>
      <stop offset="74%" stop-color="#35C669"/>
      <stop offset="82%" stop-color="#36C752"/>
    </radialGradient>
    <linearGradient id="f" x1="100%" x2="0%" y1="50%" y2="50%">
      <stop offset="26.8%" stop-color="#2B6AB0"/>
      <stop offset="38.1%" stop-color="#2867AD"/>
      <stop offset="47.7%" stop-color="#205FA2"/>
      <stop offset="56.7%" stop-color="#135190"/>
      <stop offset="60.8%" stop-color="#0B4986"/>
      <stop offset="97.2%" stop-color="#2FC2E0"/>
    </linearGradient>
    <path id="a" d="M0 0h960v400H0z"/>
  </defs>
  <g fill="none" fill-rule="evenodd">
    <mask id="b" fill="#fff">
      <use xlink:href="#a"/>
    </mask>
    <g mask="url(#b)">
      <path fill="#C2C2C2" fill-rule="nonzero" d="M0 0h959.6v399.9H0z"/>
      <g fill-rule="nonzero">
        <path fill="#D2D2D2" d="M87.6 279.3h35.7v30H67.6v-9.1h20zM205.9 208H232l-11.8-8.2h-14.3zM205.9 235.5v-8.2h46v8.2zM205.9 194.2v-4.3l6.2 4.3zM240 213.5l12 8.2h-46.1v-8.2z"/>
        <path fill="#D2D2D2" d="M534 266.9v2.1h-23.4v-5h23.5v-6h-23.5v-5h23.5v-6h-23.5v-5h23.5v-6h-23.5v-5h23.5v-6h-23.5v-3.3h-30.3v47.5h-16.7v-39.4H456v-47.4h-4.1v-57.6h-3l-2.2 17h-14v.7l-1.7-17.7h-3.2v57.6h-4.1v47.4H416V272h-35.3v-22.4h-44.7V270l-20.6 4.3v-36.7h-6.7V212h-15.6v25.5H288v11.7h-36v5.6h-46v-5.6h46V241h-46v50h-18.6v-57.7a16.9 16.9 0 00-33.7 0V291h-17.2v18.4H206v-5.1h46v5h298.2v-4.5h33.6v-37.9H534z"/>
        <path fill="#D2D2D2" d="M205.9 292.5H252v5.6h-46.1zM205.9 278.7H252v5.6h-46.1zM205.9 265H252v5.6h-46.1zM485.2 284.6h4.6v10.1h-4.6zM485.2 270.8h4.6v10.1h-4.6zM485.2 257.1h4.6v10.1h-4.6zM485.2 243.3h4.6v10.1h-4.6zM485.2 229.6h4.6v10.1h-4.6zM493.9 284.6h4.6v10.1h-4.6zM493.9 270.8h4.6v10.1h-4.6zM493.9 257.1h4.6v10.1h-4.6zM493.9 243.3h4.6v10.1h-4.6zM493.9 229.6h4.6v10.1h-4.6zM502.6 284.6h4.6v10.1h-4.6zM502.6 270.8h4.6v10.1h-4.6zM502.6 257.1h4.6v10.1h-4.6zM502.6 243.3h4.6v10.1h-4.6zM502.6 229.6h4.6v10.1h-4.6zM510.6 288h23.5v5h-23.5zM510.6 277h23.5v5h-23.5zM510.6 216h23.5v6h-23.5zM510.6 205h23.5v6h-23.5zM510.6 194h23.5v6h-23.5zM510.6 182.1h23.5v6.9h-23.5z"/>
        <path fill="#FFF" d="M363.7 133c-1.4 0-2.7.2-4 .6a29 29 0 10-57-9.8 17.7 17.7 0 00-28 13.8 9.8 9.8 0 10-4.7 18.3h93.7a11.5 11.5 0 100-23M173.9 55.4c-2.3 0-4.5.5-6.6 1.5a28.3 28.3 0 00-55.7-6.3A19.6 19.6 0 10100 86h74a15.2 15.2 0 100-30.5"/>
        <path fill="#D2D2D2" d="M871.7 285.2l-5.4-100.5a29.4 29.4 0 01-4.4 3.6v96.9h-3V190a29 29 0 01-11.8 3.2v92h-3v-92a29 29 0 01-11.7-3.2v95.2h-3v-96.9c-1.5-1-3-2.3-4.4-3.6l-4.1 77.2h-28.3v-21h-30.2v59H785v5h111.5v-19.7h-24.8z"/>
      </g>
      <path fill="#939393" fill-rule="nonzero" d="M763 388.6H365a5.1 5.1 0 110-10.1h398a5 5 0 010 10.1"/>
      <path fill="#000" fill-rule="nonzero" d="M759.3 332H368.8c-5 0-8.9-4-8.9-8.8V67.9a8.9 8.9 0 018.9-8.9h390.5a8.9 8.9 0 018.9 8.9v255.3a8.9 8.9 0 01-8.9 8.8"/>
      <path fill="#505050" fill-rule="nonzero" d="M360 223L524 59H369.5a9.6 9.6 0 00-9.6 9.6v154.6z"/>
      <path fill="#D2D2D2" fill-rule="nonzero" d="M382.6 81.7h362.9v227.6H382.6z"/>
      <path fill="#E6E6E6" fill-rule="nonzero" d="M501.3 81.7H382.6v118.7z"/>
      <path fill="#505050" fill-rule="nonzero" d="M571.5 71.3a4.4 4.4 0 11-8.9 0 4.4 4.4 0 019 0"/>
      <path fill="#D2D2D2" fill-rule="nonzero" d="M541.1 281l4-3.5 16.3-2.2 9.7 5.7-6.9-25.9-12.8 4.7-10.3 13.7z"/>
      <path fill="#D2D2D2" fill-rule="nonzero" d="M554.2 262.6c4.6-4.4 9.6-7 14-6.6a46 46 0 00-18.5-6.6 88 88 0 004.5 13.2"/>
      <path fill="#F3F3F3" fill-rule="nonzero" d="M382.6 81.9h363v18h-363z"/>
      <path fill="#FFF" fill-rule="nonzero" d="M613.6 196.9h122v104h-122z"/>
      <path fill="url(#c)" fill-rule="nonzero" d="M318.4 168.3a.5.5 0 01.6.6c-1 3-9.6 13.4-23.8 13.4-.6 0-13.6-4-13-17.3.6-13.3 10.3-17 10.3-17a6.5 6.5 0 00-3.9 4.3c-1 3.2-.7 8.6 7 14.5 8 6.3 20.1 2.5 22.8 1.5z" transform="translate(382 81)"/>
      <path fill="url(#d)" fill-rule="nonzero" d="M302.6 154.7s-.3-6.9-7.1-7.2c-6.3-.4-12.9 8.7-12.9 16.6 0 16.8 15.9 17.9 18 17.7a27.2 27.2 0 01-32.9-28c.6-15.9 21.6-16 28.4-11.8 6.5 4.1 6.5 12.7 6.5 12.7z" transform="translate(382 81)"/>
      <path fill="url(#e)" fill-rule="nonzero" d="M309 163.6c.9 0 14.4.1 14.4-13.7 0-13.8-14.4-23.3-27-23.3a28.2 28.2 0 00-20.2 8c-5.3 5-8.4 11.8-8.6 19 0 0 1.5-13.9 18.6-13.5 15.8 1 16.3 13 16.3 14 0 4.4-2.5 4.8-2.5 6.2 0 1.2 3 3.3 9 3.3z" transform="translate(382 81)"/>
      <path fill="#C2C2C2" fill-rule="nonzero" d="M623.6 273.9h92v7h-92zM623.6 284.9h48v7h-48z"/>
      <path fill="#5C005C" fill-rule="nonzero" d="M613.6 109.9h122v77h-122z"/>
      <path fill="#EA40A9" fill-rule="nonzero" d="M666.1 165a24.1 24.1 0 11-22.8-39.6c5-1 22.4 35.3 22.8 39.5"/>
      <path fill="#B4009E" fill-rule="nonzero" d="M643.3 125.4L648 149l23.7-4.6a24.1 24.1 0 00-27.8-19.1h-.5z"/>
      <path fill="#FFB900" fill-rule="nonzero" d="M648 149L666 165s3.5-3.8 4.5-7.6l-22.7-8.3"/>
      <path fill="#FF8C00" fill-rule="nonzero" d="M670.6 157.3l-22.7-8.3 23.7-4.6s1.7 7.6-1 13"/>
      <path fill="#C2C2C2" fill-rule="nonzero" d="M693.1 121h33v3h-33zM693.1 129h29v3h-29zM693.1 137h33v3h-33zM693.1 145h22v3h-22z"/>
      <path fill="#EDAC28" fill-rule="nonzero" d="M528.6 109.9h75v104h-75z"/>
      <path fill="#D83B01" fill-rule="nonzero" d="M467.6 109.9h52v48h-52z"/>
      <path fill="#FF8C00" fill-rule="nonzero" d="M407.6 109.9h52v48h-52z"/>
      <path fill="#B2B2B2" fill-rule="nonzero" d="M382.6 81.9h19v227h-19z"/>
      <path fill="#9D9D9C" fill-rule="nonzero" d="M382.6 81.9h19v18h-19z"/>
      <path fill="#00B294" fill-rule="nonzero" d="M467.6 165.9h52v48h-52z"/>
      <path fill="#91A80A" fill-rule="nonzero" d="M407.6 165.9h52v48h-52z"/>
      <path fill="#5C005C" fill-rule="nonzero" d="M407.6 223.9h196v77h-196z"/>
      <path stroke="#DADADA" stroke-width="2" d="M657.1 137.4l14.5-14.5h16"/>
      <path fill="#FFF" fill-rule="nonzero" d="M544.6 130.9h16v3h-16zM568.6 130.9h16v3h-16zM534.6 116.9h32v5h-32zM536.6 204.9h10v3h-10zM552.6 204.9h10v3h-10zM569.6 204.9h10v3h-10zM585.6 204.9h10v3h-10z"/>
      <path stroke="#FFF" stroke-opacity=".4" d="M535.6 194.4h61M535.6 186.4h61M535.6 178.4h61M535.6 170.4h61M535.6 162.4h61M535.6 154.4h61M535.6 146.4h61M535.6 202.4h61"/>
      <path fill="#DF6C47" fill-rule="nonzero" d="M536.3 186.4h10.8v15.5h-10.8zM552.8 192.9h10.8v9h-10.8zM569.3 168.9h10.8v33h-10.8zM585.8 152.9h10.8V202h-10.8z"/>
      <path fill="#BB9167" fill-rule="nonzero" d="M484 180.2a3.6 3.6 0 00-3.8 3.3l-.2 2.5a6.1 6.1 0 005.6 6.6l.6.1 1.1-8.5a3.6 3.6 0 00-3.3-4M579.2 339.7l13.3 14.7 3.8 10.4 34-12.2a6 6 0 003.6-7.7v-.3l-23.6 2.7-10.2-2.7-11.6-13.3-9.3 8.4z"/>
      <path fill="#E6E6E6" fill-rule="nonzero" d="M635.2 348.6l-9.3 3.3-2.2-6.2-3.6.4 2.5 7-11.3 4-11-7.2 3.4-4.3-3.6-1-7.6 9.8 1.3 3.6 4.3-5.4 9.6 5.8-12.1 4.4 1.4 4 39.7-14.3z"/>
      <path fill="#005291" fill-rule="nonzero" d="M504.3 287l45.1 4c4.8.3 9.1 2.6 12.1 6.3l34.2 41.7-10 8.5-44.4-37.5-53.5-2.2-22-11.3 7.5-21 31 11.5z"/>
      <path fill="#006FC8" fill-rule="nonzero" d="M585.7 347.5l10-8.5-3.5-4.3-10.2 9.6z"/>
      <path fill="#BB9167" fill-rule="nonzero" d="M537.9 357.5l7.6 18.4v11h35.8c3.5 0 6.4-2.9 6.4-6.4l-23.1-5.4-8.7-5.9-6.4-16.5-11.6 4.8z"/>
      <path fill="#E6E6E6" fill-rule="nonzero" d="M577.7 384.8v-6.6l-3.4-.8v7.4h-12l-8-10.6 4.7-2.9-3.1-2.1-10.4 6.7v3.8l5.9-3.6 7 8.7h-12.9v4.2h42.2v-4.2z"/>
      <path fill="#380038" fill-rule="nonzero" d="M442.1 298.5c3.1 1.6 6.6 2.4 10 2.3 6.4 0 6-16.7 6-16.7l-16 14.4z"/>
      <path fill="#0078D7" fill-rule="nonzero" d="M446.8 285.5l1.1 8.9a24.8 24.8 0 0022 21.5h46.4l21.2 49.2 16.7-4.4-15-54.6a17.7 17.7 0 00-13.2-12.6l-38.2-8h-41z"/>
      <path fill="#AB845F" fill-rule="nonzero" d="M515.6 224.2l5.6 37.4 32.7 15-4.4 5.5-37.2-11.4a7.5 7.5 0 01-5.2-6l-7-40.5h15.5z"/>
      <path fill="#FFF" fill-rule="nonzero" d="M501.4 210.4l-19 1.4c-25.1 1.5-34.1 34.9-34.1 59 0 9.6-6.2 27.7-6.2 27.7l7-3c15-6.6 31.2-10 47.6-10h15.5l-5.4-17.4c-.4-3.1.4-8.1 1.5-13.4 4.7-2.2 7.2-7.4 5.9-12.4l-1.2-4.6 2.3-7.4c3-9.7-3.8-20-14-20"/>
      <path fill="#BB9167" fill-rule="nonzero" d="M512.3 275.3l-9.1 4.1-28-16.7 1.4-28.3a8.1 8.1 0 00-14-6 16 16 0 00-4.5 11v23.8a11 11 0 006.6 10.1l32.8 14.4v2.2h19.7v-12.5l-4.9-2z"/>
      <path fill="#B2B2B2" fill-rule="nonzero" d="M515.1 254.2L503 287.8h-37.1v4.3h98.7l13.8-37.9z"/>
      <path fill="#737373" fill-rule="nonzero" d="M582.3 254.2h-63.1l-13.8 37.9h63.1z"/>
      <path fill="#F3F3F3" fill-rule="nonzero" d="M548.5 270.9h-5l-1.6 4.5h5z"/>
      <path fill="#409AE1" fill-rule="nonzero" d="M554.2 360.7l-16.7 4.4-2.6-6 17.8-5.4z"/>
      <path fill="#BB9167" fill-rule="nonzero" d="M502.9 161.5c-10.7-.9-20.1 7-21 17.8l-.9 10.5c-.4 4.8 1 9.5 3.8 13.4l-1.4 2.5a16 16 0 01-6.8 6.7l-3.7 1.7c.8 1.2 1.9 2.1 3.2 2.7l7 2.7a18.9 18.9 0 0019.6-3.7l2-1.8a1.4 1.4 0 00-.7-2.4l-2.5-.7c1.7 0 3.4-.5 5-1.2 7.2-3 12.6-11 13.2-16.3l1-11c.8-10.6-7.1-20-17.8-20.9"/>
      <path fill="#AB845F" fill-rule="nonzero" d="M499.5 211c-3.4 0-6.8-1-9.7-3a13 13 0 003.8 9c2.8-1.2 5-3.3 6.3-6h-.4M520.5 184.6l-3.2-1.5c-3.9-.3-6.9 1.3-8.3 4.4l4.2 6.4a1.5 1.5 0 01-1.4 2.3l-2-.3a2 2 0 00-2.2 1.9l-.5 5.7c-.2 3-2 5.8-4.7 7.3 9.2-1.1 16.6-11.2 17.3-17.4l.8-8.8z"/>
      <path fill="#000" fill-rule="nonzero" d="M500.7 187a2 2 0 11-4-.3 2 2 0 014 .3M518.1 188.4a2 2 0 11-4-.3 2 2 0 014 .3"/>
      <path fill="#BB9167" fill-rule="nonzero" d="M484 180.2a3.6 3.6 0 00-3.8 3.3l-.2 2.5a6.1 6.1 0 005.6 6.6l.6.1 1.1-8.5a3.6 3.6 0 00-3.3-4"/>
      <path fill="#665042" fill-rule="nonzero" d="M520.1 185h-.4a5.8 5.8 0 00-6.4-.7.7.7 0 11-.6-1.2c2.5-1.3 5.6-1 7.8.8a.7.7 0 01-.4 1.2"/>
      <path fill="#E6E6E6" fill-rule="nonzero" d="M513.4 200.2s-5.6 7.2-13.3-1.2l13.3 1.2z"/>
      <path fill="#665042" fill-rule="nonzero" d="M503.7 159.6a29.8 29.8 0 00-21.3 5.8c-2 1.3-3.2 1.1-5.2-.3-5-3.9-14.6-5-21.2-1.5 6.6.6 10.4 3 12.1 5.4-6-1-13.4 1.5-13.4 10.4 4.8-3.9 12.1-3 14.2 3.6-6-1.3-17.4 2-20.2 8.1 15-5 16.5 7 24.7 11 3 1.5 7.2 1.6 11.3 1.2.7-3.5 1.1-7 1.4-10.6h-.5a6.1 6.1 0 01-5.6-6.7l.2-2.5a3.6 3.6 0 016.6-1.6l.1.2v.1c.3.7 1 1.1 1.7 1.2 1.8 0 3.5-.2 5.2-.4a.7.7 0 001.1.5 6 6 0 018.3.7.7.7 0 10.9-1c-1-1-2.3-1.8-3.8-2.2 3.8-1.5 7-4.2 9.4-7.5 0 0 4.9 6.4 11.2 6.4.8-10-3.9-19.2-17.2-20.3"/>
      <path fill="#4F3E33" fill-rule="nonzero" d="M485.3 199.7l.6-7h-.3c-2-.2-3.7-1.3-4.7-3-1.1 1.1-3.8 2.4-9.3-.9-7.1-4.1-15.7-2.3-18.8 1.3 11.2-1.7 13.2 8.3 20.6 12 3 1.5 7.2 1.6 11.3 1.2l.6-3.6"/>
      <g fill-rule="nonzero">
        <path fill="#2FC2E0" d="M724.5 155.7l-3.8-5s.1 40-1 49.5c-.9 8.4-6 18.4-6 25.4 0 4.9 2.2 12 8.4 12 6.6 0 9.3-4.3 9.3-12.4 0-8-7.4-24-7.4-33.4l.4-36z"/>
        <path fill="#E6E6E6" d="M870.8 17.6l-73 71c-5.8 5.7-13 9.9-20.7 12.3l-52.6 16.3-.8-2.5a6.7 6.7 0 00-12.8 4l12.8 41a6.7 6.7 0 1012.8-3.9l-.8-2.6 52.6-16.3c7.8-2.4 16-3 24.1-1.6l100.3 17.2a9.3 9.3 0 0010.5-11.9l-37-119.1a9.3 9.3 0 00-15.4-4"/>
        <path fill="url(#f)" d="M52 131l.1-.2a67.4 67.4 0 0153.3-26.2h122.2l5.4 19a3.7 3.7 0 01-4 4.7L130.3 112c-7.4-1.2-15-.7-22.1 1.5L52 130.9z" transform="translate(680 14)"/>
        <path fill="#FFF" d="M829 76a3.2 3.2 0 01-2.2-5.4l6.4-6.2a3.2 3.2 0 014.4 4.6l-6.4 6.2c-.6.5-1.4.9-2.2.9M897.1 96.4c-1.4 0-2.6-1-3-2.3l-16.3-53.7a5.1 5.1 0 00-8.5-2.2l-17 16.7a3.2 3.2 0 01-4.4-4.6l17-16.6a11.5 11.5 0 0119 4.9l16.3 53.7a3.2 3.2 0 01-3 4M721.6 132.3c-1.2 0-2.2-.8-2.6-2l-3.7-11.9a2.7 2.7 0 115.2-1.6l3.7 12a2.7 2.7 0 01-2.6 3.5"/>
        <path fill="#107C10" d="M732.6 43.6a3.1 3.1 0 104 4.8 3.1 3.1 0 00-4-4.8"/>
        <path fill="#FFB900" d="M680 86.5a22.5 22.5 0 0113.8 14.6c2-6.7 7.1-12.1 13.7-14.6A22.5 22.5 0 01693.8 72c-2 6.8-7.2 12.2-13.8 14.6"/>
        <path fill="#EA40A9" d="M715.2 97.3a14 14 0 018.5 9.1 14 14 0 018.6-9 14 14 0 01-8.6-9.2 14 14 0 01-8.5 9.1"/>
        <path fill="#FFF" d="M701 55.1c4.8 1.8 8.5 5.7 10 10.6 1.4-4.9 5.1-8.8 9.9-10.6a16.3 16.3 0 01-10-10.5A16.3 16.3 0 01701 55"/>
        <path fill="#5C005C" d="M693.2 31.3a14 14 0 018.5 9.1 14 14 0 018.6-9 14 14 0 01-8.6-9.2 14 14 0 01-8.5 9.1"/>
      </g>
    </g>
  </g>
</svg>
